<?xml version="1.0" encoding="iso-8859-1"?>
<!-- Generator: Adobe Illustrator 16.0.0, SVG Export Plug-In . SVG Version: 6.00 Build 0)  -->
<!DOCTYPE svg PUBLIC "-//W3C//DTD SVG 1.1//EN" "http://www.w3.org/Graphics/SVG/1.1/DTD/svg11.dtd">
<svg version="1.1" id="Capa_1" xmlns="http://www.w3.org/2000/svg" xmlns:xlink="http://www.w3.org/1999/xlink" x="0px" y="0px"
	 width="380.721px" height="380.721px" viewBox="0 0 380.721 380.721" style="enable-background:new 0 0 380.721 380.721;"
	 xml:space="preserve">
<g>
	<g>
		<path d="M316.131,115.809c-13.838-11.444-31.545-17.236-52.621-17.236c-22.169,0-43.523,6.495-58.013,12.159
			c-0.034-9.022,0.512-37.859,0.512-37.859c11.468,2.405,28.082,1.342,39.933,1.342c6.542,0,12.793-0.401,18.602-1.185
			c36.32-4.926,54.817-33.706,61.766-44.534l0.65-0.988c0.743-1.167,0.883-2.62,0.371-3.904C326.832,22.32,292.173,0,259.048,0
			c-45.94,0-72.361,42.31-73.674,44.104c-0.535,0.738-0.819,1.615-0.819,2.51v64.28c-15.215-5.949-39.521-13.582-64.438-13.582
			c-22.615,0-41.368,6.268-55.525,18.497c-58.512,48.386-46.057,131.715-9.719,188.658c34.408,53.934,64.71,73.559,120.305,75.848
			v0.406l15.187-0.059h3.485l11.683-0.081v-0.29c55.015-2.383,86.35-22.599,120.3-75.824
			C362.187,247.524,374.642,164.195,316.131,115.809z M306.22,291.965c-31.929,50.042-58.175,65.309-112.312,65.309h-7.082
			c-54.812,0-80.012-14.65-112.312-65.309c-31.004-48.589-42.687-118.824,5.118-158.356c10.004-8.626,23.627-13.001,40.497-13.001
			c34.089,0,69.125,17.689,69.479,17.87l5.275,2.689l5.269-2.655c7.738-3.916,35.24-16.655,63.357-16.655
			c15.511,0,28.232,4.008,37.783,11.909C348.907,173.13,337.219,243.365,306.22,291.965z"/>
		<path d="M152.29,321.256c-2.521-1.859-5.042-4.403-7.924-6.738c-2.869-2.395-5.519-5.543-8.615-8.273
			c-2.736-3.264-5.96-6.135-8.743-9.771c-2.974-3.461-5.902-7.04-8.557-10.723c-2.725-3.37-5.746-7.925-8.731-12.188
			c-10.526-14.559-17.074-33.334-22.047-47.915c-4.827-15.14-8.051-25.236-8.051-25.236s-4.392,10.41-5.008,26.967
			c-0.418,8.272,0.105,18.032,2.498,28.408c2.353,10.305,6.709,21.436,13.594,31.184c3.073,4.265,5.809,8.482,9.951,12.84
			c3.683,4.449,7.778,8.179,11.833,11.583c3.916,3.567,8.522,6.192,12.496,8.911c4.404,2.231,8.389,4.485,12.444,5.821
			c7.877,3.114,14.849,4.218,19.641,4.683c4.868,0.349,7.616,0.279,7.616,0.279s-2.179-1.859-5.914-4.648
			C156.868,325.137,154.788,323.116,152.29,321.256z"/>
	</g>
</g>
<g>
</g>
<g>
</g>
<g>
</g>
<g>
</g>
<g>
</g>
<g>
</g>
<g>
</g>
<g>
</g>
<g>
</g>
<g>
</g>
<g>
</g>
<g>
</g>
<g>
</g>
<g>
</g>
<g>
</g>
</svg>
