<?xml version="1.0" encoding="iso-8859-1"?>
<!-- Generator: Adobe Illustrator 18.1.1, SVG Export Plug-In . SVG Version: 6.00 Build 0)  -->
<svg version="1.1" id="Capa_1" xmlns="http://www.w3.org/2000/svg" xmlns:xlink="http://www.w3.org/1999/xlink" x="0px" y="0px"
	 viewBox="0 0 48.677 48.677" style="enable-background:new 0 0 48.677 48.677;" xml:space="preserve">
<g>
	<g>
		<path style="fill:#030104;" d="M38.222,34.407c-1.189-0.805-2.412-1.562-3.596-2.375c-1.885-1.293-3.703-2.676-5.573-3.988
			c-5.448-3.827-11.471-5.501-18.063-5.985c-1.515-0.111-3.025-0.103-4.53,0.022c-1.101,0.092-1.992,0.291-2.001,0.362
			c-0.008,0.065-0.015,0.13-0.015,0.13c-0.079,0.771-0.138,1.751-0.113,2.855c0.041,0.868,0.133,1.802,0.316,2.779
			c0.014,0.087,0.276,1.559,1.433,2.618c0.815,0.746,1.765,0.935,1.787,0.937l0.04,0.005c0.06,0.01,6.48,0.61,11.72,1.69
			c0.06,0.01,6.76,1.61,9.16,2.69c0.181,0.069,4.511,1.899,7.74,1.899c0.6,0,1.129-0.063,1.586-0.19
			c0.854-0.234,1.684-0.996,1.969-1.355s0.461-0.694,0.451-0.705c-0.011-0.012-0.567-0.266-1.195-0.654
			C38.958,34.909,38.59,34.657,38.222,34.407z"/>
		<path style="fill:#030104;" d="M48.462,32.89c-0.506-0.857-1.662-1.99-2.682-2.414v-0.001c-0.621-0.258-1.298-0.515-2.022-0.753
			c-2.394-0.791-5.312-1.385-8.377-1.164c-1.103,0.079-1.16-0.109-0.089-0.379c1.873-0.47,4.977-0.859,8.688,0.18
			c0.456,0.131,0.92,0.282,1.394,0.459c0.759,0.281,1.022-0.274,0.511-1.254c-0.228-0.435-0.501-0.928-0.826-1.465
			c-0.571-0.945-1.908-2.051-2.968-2.362c-2.907-0.854-6.934-1.115-11.821,0.904c-0.118,0.045-0.237,0.094-0.356,0.145
			c-0.196,0.084-0.26,0.075-0.141-0.021c0.061-0.048,0.135-0.105,0.221-0.169c1.268-0.974,5.195-3.488,10.713-2.434
			c1.084,0.207,1.375-0.198,0.627-1.011c-0.479-0.521-0.994-1.046-1.549-1.57c-0.802-0.759-2.381-1.487-3.483-1.532
			c-2.687-0.111-6.091,0.403-9.818,2.517c-0.961,0.545-1.134,0.355-0.29-0.356c1.551-1.307,4.387-3.062,8.549-3.222
			c1.104-0.043,1.279-0.491,0.351-1.088c-0.711-0.457-1.46-0.899-2.25-1.322c-0.974-0.521-2.688-0.877-3.78-0.704
			c-2.646,0.418-5.724,1.604-8.616,4.404c-0.793,0.768-0.962,0.655-0.305-0.233c1.167-1.577,3.338-3.822,6.74-4.853
			c1.057-0.32,1.188-0.721,0.229-1.032c-0.567-0.184-1.151-0.358-1.752-0.519c0,0-0.331-0.112-0.92-0.262
			c-0.512-0.13-1.804,0.003-2.831,0.409c-2.333,0.921-4.887,2.529-7.1,5.319c-0.686,0.865-0.926,0.756-0.421-0.226
			c0.795-1.546,2.346-3.727,5.208-5.274c0.972-0.525,0.932-0.929-0.172-0.963c-0.434-0.013-0.882-0.016-1.344-0.005
			c-1.104,0.026-2.779,0.569-3.67,1.223c-1.602,1.176-3.313,2.824-4.954,5.135c-0.639,0.901-0.812,0.82-0.336-0.177
			c0.547-1.145,1.399-2.659,2.602-4.081c0.714-0.843,0.517-1.226-0.521-0.847c-0.523,0.191-1.047,0.407-1.57,0.652
			c-1,0.469-2.371,1.603-3.025,2.492c-0.608,0.826-1.206,1.77-1.756,2.841c-0.505,0.982-0.687,0.929-0.335-0.118
			c0.111-0.33,0.244-0.689,0.404-1.067c0.431-1.017,0.198-1.228-0.592-0.457c-1.278,1.246-2.49,2.752-3.589,4.575
			c0,0-0.223,0.334-0.408,0.745c-0.193,0.428,0.574,0.473,1.657,0.256c1.222-0.245,2.619-0.469,2.828-0.505
			c0.18-0.031,0.361-0.048,0.541-0.076c2.159-0.329,4.333-0.416,6.515-0.256c6.591,0.484,12.615,2.158,18.063,5.985
			c1.869,1.313,3.689,2.696,5.572,3.989c1.186,0.813,2.408,1.568,3.597,2.375c0.739,0.502,1.483,1.008,2.292,1.367
			c0.398,0.176,0.811,0.33,1.255,0.407c1.79,0.315,3.431-0.116,5.116-0.429C48.55,34.467,48.973,33.749,48.462,32.89z"/>
	</g>
</g>
<g>
</g>
<g>
</g>
<g>
</g>
<g>
</g>
<g>
</g>
<g>
</g>
<g>
</g>
<g>
</g>
<g>
</g>
<g>
</g>
<g>
</g>
<g>
</g>
<g>
</g>
<g>
</g>
<g>
</g>
</svg>
