<?xml version="1.0" encoding="iso-8859-1"?>
<!-- Generator: Adobe Illustrator 16.0.0, SVG Export Plug-In . SVG Version: 6.00 Build 0)  -->
<!DOCTYPE svg PUBLIC "-//W3C//DTD SVG 1.1//EN" "http://www.w3.org/Graphics/SVG/1.1/DTD/svg11.dtd">
<svg version="1.1" id="Capa_1" xmlns="http://www.w3.org/2000/svg" xmlns:xlink="http://www.w3.org/1999/xlink" x="0px" y="0px"
	 width="581.4px" height="581.4px" viewBox="0 0 581.4 581.4" style="enable-background:new 0 0 581.4 581.4;" xml:space="preserve"
	>
<g>
	<g id="Layer_1_119_">
		<g>
			<path d="M504.9,5.737H244.8c-42.075,0-76.5,34.425-76.5,76.5c0,3.825,0,8.925,1.275,12.75H336.6
				c62.476,0,114.75,51,114.75,114.75c0,36.975-17.85,71.4-48.449,93.074v146.625h102c16.574,0,29.324-12.75,29.324-29.324v-267.75
				C561,140.887,581.4,112.837,581.4,80.962C581.4,38.887,546.975,5.737,504.9,5.737z"/>
			<path d="M413.1,208.462c0-67.575-63.75-76.5-76.5-76.5H76.5c-15.3,0-76.5,12.75-76.5,76.5c0,53.55,35.7,66.3,48.45,71.4v262.65
				c0,19.125,15.3,33.15,33.15,33.15h249.9c8.925,0,17.85-3.826,24.225-10.201s10.2-15.299,10.2-24.225v-262.65
				C378.675,274.762,413.1,251.812,413.1,208.462z M350.625,244.163l-22.95,10.2v25.5v258.824H85.425V279.862v-25.5l-22.95-10.2
				c-15.3-5.1-24.225-19.125-24.225-35.7c0-21.675,17.85-38.25,38.25-38.25h260.1c21.676,0,38.25,17.85,38.25,38.25
				C374.85,223.762,365.925,239.062,350.625,244.163z"/>
			<circle cx="163.2" cy="247.988" r="21.675"/>
			<circle cx="229.5" cy="283.688" r="22.95"/>
			<circle cx="168.3" cy="353.812" r="26.774"/>
			<circle cx="252.45" cy="402.262" r="22.95"/>
			<circle cx="209.1" cy="471.112" r="22.949"/>
			<circle cx="145.35" cy="444.337" r="12.75"/>
			<circle cx="277.95" cy="219.937" r="16.575"/>
		</g>
	</g>
</g>
<g>
</g>
<g>
</g>
<g>
</g>
<g>
</g>
<g>
</g>
<g>
</g>
<g>
</g>
<g>
</g>
<g>
</g>
<g>
</g>
<g>
</g>
<g>
</g>
<g>
</g>
<g>
</g>
<g>
</g>
</svg>
