<?xml version="1.0" encoding="iso-8859-1"?>
<!-- Generator: Adobe Illustrator 16.0.0, SVG Export Plug-In . SVG Version: 6.00 Build 0)  -->
<!DOCTYPE svg PUBLIC "-//W3C//DTD SVG 1.1//EN" "http://www.w3.org/Graphics/SVG/1.1/DTD/svg11.dtd">
<svg version="1.1" id="Capa_1" xmlns="http://www.w3.org/2000/svg" xmlns:xlink="http://www.w3.org/1999/xlink" x="0px" y="0px"
	 width="34.648px" height="34.648px" viewBox="0 0 34.648 34.648" style="enable-background:new 0 0 34.648 34.648;"
	 xml:space="preserve">
<g>
	<path d="M26.628,5.761l0.022-0.02l-1.854-2.396V0.73c0-0.402-0.328-0.73-0.731-0.73H11.116c-0.403,0-0.731,0.328-0.731,0.73v2.511
		L8.008,9.247C7.994,9.288,7.983,9.329,7.977,9.366C7.974,9.384,7.972,9.403,7.97,9.431l0.209,0.034l0,0l0,0l0,0L7.965,9.488v24.431
		c0,0.401,0.328,0.729,0.731,0.729h12.951c0.068,0,0.137-0.01,0.25-0.045c0.065-0.023,0.131-0.059,0.152-0.082l4.361-3.489
		c0.174-0.14,0.273-0.349,0.273-0.57V6.031C26.683,5.939,26.664,5.847,26.628,5.761z M20.915,10.219v22.969H9.426V10.219H20.915z
		 M25.222,7.554v22.557l-2.846,2.285V9.839L25.222,7.554z M23.342,7.19l0.874-2.207l0.72,0.928L23.342,7.19z M11.846,2.65V1.461
		h11.489V2.65H11.846z M22.99,4.111l-1.842,4.647H9.771l1.841-4.647H22.99z"/>
	<ellipse cx="15.062" cy="20.009" rx="4.079" ry="2.684"/>
</g>
<g>
</g>
<g>
</g>
<g>
</g>
<g>
</g>
<g>
</g>
<g>
</g>
<g>
</g>
<g>
</g>
<g>
</g>
<g>
</g>
<g>
</g>
<g>
</g>
<g>
</g>
<g>
</g>
<g>
</g>
</svg>
