<?xml version="1.0" encoding="iso-8859-1"?>
<!-- Generator: Adobe Illustrator 16.0.0, SVG Export Plug-In . SVG Version: 6.00 Build 0)  -->
<!DOCTYPE svg PUBLIC "-//W3C//DTD SVG 1.1//EN" "http://www.w3.org/Graphics/SVG/1.1/DTD/svg11.dtd">
<svg version="1.1" id="Capa_1" xmlns="http://www.w3.org/2000/svg" xmlns:xlink="http://www.w3.org/1999/xlink" x="0px" y="0px"
	 width="584.467px" height="584.467px" viewBox="0 0 584.467 584.467" style="enable-background:new 0 0 584.467 584.467;"
	 xml:space="preserve">
<g>
	<g id="Layer_1_149_">
		<g>
			<path d="M372.563,366.82c-19.125,11.477-42.075,16.576-63.75,16.576c-47.174,0-90.524-25.5-113.474-66.301
				c-35.7-62.475-14.025-142.799,49.725-178.5c8.925-5.1,20.4-10.2,33.15-14.025c-16.575-8.925-31.875-15.3-44.625-19.125
				c-93.075-30.6-193.8,20.4-224.4,112.2c-25.5,76.5,3.825,150.45,66.3,201.45h441.149c0,0,11.475-7.65,17.85-26.775
				c12.75-35.699-17.85-82.875-62.475-128.774C445.238,308.172,404.438,348.971,372.563,366.82z"/>
			<path d="M580.388,130.946c-6.375-10.2-17.85-17.85-29.325-17.85h-1.274c6.375-12.75,7.649-21.675,1.274-33.15
				c-6.375-10.2-16.575-16.575-28.05-16.575c-5.1,0-11.475,1.275-16.575,5.1c-15.3,8.925-21.675,29.325-12.75,44.625
				c1.275,1.275,2.55,3.825,3.825,5.1l-65.025,36.975c-14.024-7.65-33.149-10.2-53.55-10.2c-42.075,0-90.524,12.75-116.024,26.775
				c-44.625,25.5-59.925,81.6-34.425,126.225c16.575,29.326,48.45,47.176,80.324,47.176c15.3,0,30.601-3.826,45.9-11.475
				c36.975-21.676,98.175-90.526,100.725-137.701l65.025-36.975c1.274,2.55,1.274,3.825,2.55,6.375
				c6.375,10.2,16.575,16.575,28.05,16.575c5.101,0,11.476-2.55,16.575-5.1C582.938,167.921,589.313,146.246,580.388,130.946z"/>
			<path d="M483.488,457.346H103.539c-17.85,0-31.875,14.025-31.875,31.875s14.025,31.875,31.875,31.875h381.225
				c17.85,0,31.875-14.025,31.875-31.875S501.338,457.346,483.488,457.346z"/>
		</g>
	</g>
</g>
<g>
</g>
<g>
</g>
<g>
</g>
<g>
</g>
<g>
</g>
<g>
</g>
<g>
</g>
<g>
</g>
<g>
</g>
<g>
</g>
<g>
</g>
<g>
</g>
<g>
</g>
<g>
</g>
<g>
</g>
</svg>
