<?xml version="1.0" encoding="iso-8859-1"?>
<!-- Generator: Adobe Illustrator 16.0.0, SVG Export Plug-In . SVG Version: 6.00 Build 0)  -->
<!DOCTYPE svg PUBLIC "-//W3C//DTD SVG 1.1//EN" "http://www.w3.org/Graphics/SVG/1.1/DTD/svg11.dtd">
<svg version="1.1" id="Capa_1" xmlns="http://www.w3.org/2000/svg" xmlns:xlink="http://www.w3.org/1999/xlink" x="0px" y="0px"
	 width="451.227px" height="451.227px" viewBox="0 0 451.227 451.227" style="enable-background:new 0 0 451.227 451.227;"
	 xml:space="preserve">
<g>
	<g id="Layer_2_21_">
		<g>
			<path d="M451.227,185.987l-9.377-28.867l-58.492,19.01l20.232-39.708l-27.047-13.772l-34.002,66.739l-27.957,9.088l12.881-74.847
				l-22.006-16.007l-64.67,33.946v-26.11l52.973-52.967l-21.467-21.456l-31.506,31.503V11.045h-30.353v61.496L178.93,41.038
				l-21.46,21.456l52.966,52.967v25.998l-64.451-33.936l-22.029,15.986l12.813,75.001l-28.078-9.121L74.684,122.65l-27.047,13.773
				l20.232,39.708l-58.492-19.01L0,185.988l58.492,19.008l-39.705,20.227l13.78,27.037l66.741-34.001l25.272,8.214l-50.003,48.67
				l8.399,25.898l74.103,10.816l-18.904,26.006l-73.991,11.722l4.751,29.985l44.013-6.979l-36.15,49.752l24.551,17.838l36.15-49.752
				l6.972,44.016l29.977-4.746l-11.721-73.996l17.828-24.535l31.376,63.686l27.214,0.01l31.504-63.717l17.848,24.559l-11.721,73.996
				l29.977,4.746l6.975-44.018l36.148,49.752l24.551-17.836l-36.145-49.752l44.008,6.977l4.752-29.984l-73.992-11.721l-18.848-25.94
				l74.023-10.715l8.424-25.876l-50.057-48.848l25.324-8.228l66.74,34.001l13.781-27.037l-39.699-20.227L451.227,185.987z
				 M240.789,175.851l51.549-27.057l-10.381,60.276l-41.168,13.384V175.851z M210.437,175.759v46.695l-41.065-13.351l-10.321-60.39
				L210.437,175.759z M177.23,284.117l-59.449-8.674l39.423-38.377l43.856,14.242L177.23,284.117z M225.568,353.85l-24.848-50.432
				l24.894-34.26l24.886,34.248L225.568,353.85z M333.451,275.578l-59.408,8.596l-23.879-32.863l43.832-14.232L333.451,275.578z"/>
		</g>
	</g>
</g>
<g>
</g>
<g>
</g>
<g>
</g>
<g>
</g>
<g>
</g>
<g>
</g>
<g>
</g>
<g>
</g>
<g>
</g>
<g>
</g>
<g>
</g>
<g>
</g>
<g>
</g>
<g>
</g>
<g>
</g>
</svg>
