<?xml version="1.0" encoding="iso-8859-1"?>
<!-- Generator: Adobe Illustrator 16.0.0, SVG Export Plug-In . SVG Version: 6.00 Build 0)  -->
<!DOCTYPE svg PUBLIC "-//W3C//DTD SVG 1.1//EN" "http://www.w3.org/Graphics/SVG/1.1/DTD/svg11.dtd">
<svg version="1.1" id="Capa_1" xmlns="http://www.w3.org/2000/svg" xmlns:xlink="http://www.w3.org/1999/xlink" x="0px" y="0px"
	 width="491.864px" height="491.864px" viewBox="0 0 491.864 491.864" style="enable-background:new 0 0 491.864 491.864;"
	 xml:space="preserve">
<g>
	<path d="M382.26,104.098V66.056H107.203v36.489c-28.701,18.426-43.242,48.144-43.242,88.441v187.37
		c0,75.322,52.133,113.508,154.948,113.508h54.044c102.81,0,154.95-38.186,154.95-113.508v-187.37
		C427.903,152.104,412.554,122.91,382.26,104.098z M406.281,378.35c0,61.835-43.604,91.886-133.328,91.886h-54.044
		c-89.72,0-133.328-30.051-133.328-91.886V190.98c0-34.882,12.333-58.718,37.704-72.884l5.544-3.087V87.681h231.814v29.036
		l5.62,3.069c26.926,14.732,40.018,38.018,40.018,71.194V378.35z M100.45,35.135V14.416C100.45,6.458,106.899,0,114.86,0h262.15
		c7.959,0,14.413,6.452,14.413,14.416v20.719c0,7.955-6.454,14.416-14.413,14.416H114.86
		C106.899,49.551,100.45,43.096,100.45,35.135z M362.476,386.734c0,27.243-38.988,49.335-87.087,49.335
		c-26.98,0-51.106-6.954-67.081-17.878c10.239-8.038,19.984-18.067,28.503-29.618c11.876-16.1,20.31-33.637,24.537-50.521
		c4.566-0.42,9.255-0.651,14.041-0.651C323.487,337.412,362.476,359.491,362.476,386.734z M139.79,420.273
		c-21.93-16.173-16.547-60.653,12.008-99.362c28.552-38.709,69.48-56.965,91.392-40.791c21.933,16.178,16.55,60.666-12.005,99.368
		C202.624,418.191,161.708,436.452,139.79,420.273z"/>
</g>
<g>
</g>
<g>
</g>
<g>
</g>
<g>
</g>
<g>
</g>
<g>
</g>
<g>
</g>
<g>
</g>
<g>
</g>
<g>
</g>
<g>
</g>
<g>
</g>
<g>
</g>
<g>
</g>
<g>
</g>
</svg>
