<?xml version="1.0" encoding="iso-8859-1"?>
<!-- Generator: Adobe Illustrator 18.1.1, SVG Export Plug-In . SVG Version: 6.00 Build 0)  -->
<svg version="1.1" id="Capa_1" xmlns="http://www.w3.org/2000/svg" xmlns:xlink="http://www.w3.org/1999/xlink" x="0px" y="0px"
	 viewBox="0 0 252.164 252.164" style="enable-background:new 0 0 252.164 252.164;" xml:space="preserve">
<g>
	<path style="fill:#030104;" d="M37.085,245.318l120.944,6.744V60.473H37.085V245.318z M42.02,119.821l110.896,0.625l0.06,25.711
		L42.02,144.865C42.02,144.865,42.02,119.821,42.02,119.821z"/>
	<path style="fill:#030104;" d="M160.311,252.164l54.769-14.829V60.473h-54.769V252.164z M163.64,119.821l48.287-3.574v23.032
		l-48.287,5.586V119.821z"/>
	<polygon style="fill:#030104;" points="65.61,20.539 37.082,58.192 158.032,58.192 184.273,20.539 	"/>
	<path style="fill:#030104;" d="M184.273,9.13c0-5.023-4.108-9.13-9.127-9.13H74.739C69.72,0,65.61,4.107,65.61,9.13v9.129h118.664
		V9.13H184.273z"/>
	<polygon style="fill:#030104;" points="185.486,20.539 160.068,58.192 215.082,58.192 	"/>
</g>
<g>
</g>
<g>
</g>
<g>
</g>
<g>
</g>
<g>
</g>
<g>
</g>
<g>
</g>
<g>
</g>
<g>
</g>
<g>
</g>
<g>
</g>
<g>
</g>
<g>
</g>
<g>
</g>
<g>
</g>
</svg>
