<?xml version="1.0" encoding="iso-8859-1"?>
<!-- Generator: Adobe Illustrator 18.1.1, SVG Export Plug-In . SVG Version: 6.00 Build 0)  -->
<svg version="1.1" id="Capa_1" xmlns="http://www.w3.org/2000/svg" xmlns:xlink="http://www.w3.org/1999/xlink" x="0px" y="0px"
	 viewBox="0 0 476.668 476.668" style="enable-background:new 0 0 476.668 476.668;" xml:space="preserve">
<g>
	<g>
		<path style="fill:#010002;" d="M245.312,269.296c1.203-6.755,3.731-13.241,7.852-18.98c3.251-4.536,7.291-8.251,11.778-11.291
			c-0.528-1.821-1.105-3.625-1.422-5.544c-2-12.177,0.992-24.012,7.421-33.506c-9.145-6.974-15.737-17.216-17.728-29.369
			c-1.292-7.877-0.35-15.721,2.268-23.036c-0.008-0.008-0.016-0.016-0.024-0.024c-44.098-37.717-80.993-20.874-99.957-10.51
			c-9.909,5.414-17.094,7.771-21.663,8.836c-4.666,0.439-12.233,0.488-23.345-1.504c-21.272-3.812-61.598-8.072-91.455,41.683
			c-10.128,16.883-6.56,49.82,5.446,83.237h220.829V269.296z M72.19,175.663c13.819-7.511,26.125,13.542,12.307,21.053
			c-20.817,11.323-23.28,32.01-8.372,49.942c9.974,11.998-7.178,29.352-17.241,17.241C34.343,234.392,36.652,194.984,72.19,175.663z
			"/>
		<path style="fill:#010002;" d="M67.581,42.541c-11.087-7.088-19.59,11.738-8.673,18.72c31.173,19.931,54.201,29.946,60.989,68.329
			c2.292,12.981,22.606,11.006,20.281-2.113c-0.756-4.276-1.715-8.194-2.78-11.949c-6.47-2.105-14.071-7.633-18.94-21.581
			c-1.983-5.674-2.374-10.697-1.52-15.168C104.298,65.35,87.528,55.295,67.581,42.541z"/>
		<path style="fill:#010002;" d="M292.547,269.296c-7.031-2.715-13.209-7.112-18.119-12.729c-2.187-2.504-4.121-5.227-5.739-8.185
			c-2.837,2.17-5.462,4.633-7.608,7.616c-2.91,4.056-4.91,8.568-5.983,13.298h17.289H292.547z"/>
		<path style="fill:#010002;" d="M330.996,269.296c-0.163-0.309-0.284-0.642-0.439-0.959c-0.585,0.325-1.203,0.593-1.772,0.959
			H330.996z"/>
		<path style="fill:#010002;" d="M323.55,202.617c-5.113,3.17-10.852,5.332-16.964,6.332c-2.504,0.415-5.048,0.618-7.568,0.618
			c-7.064,0-13.697-1.723-19.72-4.552c-1.097,1.577-2.056,3.243-2.894,4.967c-3.211,6.592-4.536,14.16-3.26,21.923
			c0.138,0.821,0.423,1.577,0.61,2.382c0.374,1.618,0.78,3.219,1.349,4.739c0.276,0.732,0.65,1.406,0.967,2.113
			c0.35,0.772,0.658,1.569,1.057,2.309c6.243,11.591,18.362,19.232,32.189,19.232c1.991,0,4.007-0.163,5.991-0.488
			c2.731-0.447,5.332-1.26,7.836-2.268c1.325-0.536,2.577-1.195,3.82-1.878c-0.171-0.756-0.439-1.463-0.577-2.235
			c-0.024-0.122-0.073-0.228-0.089-0.35c-0.48-2.926-0.642-5.853-0.569-8.754c0.228-9.088,3.121-17.883,8.454-25.467
			C329.321,216.062,325.647,209.754,323.55,202.617z"/>
		<path style="fill:#010002;" d="M335.938,253.9c0.098,0.602,0.317,1.138,0.447,1.731c0.106,0.504,0.252,1,0.382,1.496
			c0.276,1.073,0.463,2.187,0.829,3.211c0.211,0.593,0.536,1.122,0.78,1.707c0.39,0.943,0.805,1.861,1.26,2.764
			c0.813,1.577,1.748,3.056,2.772,4.487h25.703h7.82h7.088h19.013c0.463-0.65,0.772-1.382,1.195-2.057
			c-10.868-6.885-18.777-18.127-20.996-31.693c-0.106-0.667-0.049-1.325-0.13-1.991c-2.17,0.691-4.333,1.382-6.625,1.764
			c-2.504,0.415-5.056,0.618-7.568,0.618c-4.495,0-8.787-0.805-12.916-1.991c-1.601-0.463-3.186-0.935-4.706-1.561
			c-1.577-0.642-3.105-1.374-4.593-2.178c-1.398-0.764-2.699-1.634-3.999-2.528c-4.682,7.023-6.698,15.257-5.926,23.63
			C335.848,252.169,335.791,253.03,335.938,253.9z"/>
		<path style="fill:#010002;" d="M322.233,181.45c1.674-9.486,6.251-18.135,12.933-24.825c-3.138-17.558-18.192-30.255-36.05-30.255
			c-1.991,0-4.007,0.163-5.983,0.488c-9.681,1.585-18.159,6.852-23.882,14.81c-3.268,4.552-5.267,9.697-6.21,15.062
			c-0.707,4.024-0.878,8.161-0.195,12.315c1.374,8.364,5.519,15.582,11.323,20.964c0.967,0.894,1.983,1.707,3.04,2.495
			c1.349,1.008,2.731,1.951,4.219,2.764c1.601,0.878,3.235,1.683,4.958,2.317c3.951,1.447,8.21,2.243,12.64,2.243
			c1.991,0,4.007-0.163,5.983-0.488c6.178-1.016,11.77-3.666,16.558-7.421c-0.008-0.187,0-0.374-0.008-0.561
			c-0.065-1.666-0.041-3.325,0.073-4.958C321.745,184.726,321.948,183.076,322.233,181.45z"/>
		<path style="fill:#010002;" d="M344.042,217.37c0.341,0.293,0.74,0.528,1.089,0.805c0.959,0.764,1.967,1.471,2.999,2.138
			c0.797,0.512,1.601,0.984,2.439,1.439c1.618,0.87,3.276,1.658,5.023,2.276c3.861,1.366,7.999,2.154,12.315,2.154
			c1.991,0,4.007-0.163,5.991-0.488c2.845-0.463,5.544-1.341,8.145-2.422c0.35-3.406,1.089-6.722,2.178-9.966
			c0.504-1.496,0.87-3.024,1.528-4.463c0.707-1.561,1.715-2.999,2.601-4.487c0.683-1.138,1.211-2.349,1.991-3.438
			c3.82-5.324,8.665-9.616,14.144-12.851c-0.057-1.512-0.049-3.032-0.293-4.552c-2.097-12.794-10.575-22.979-21.833-27.767
			c0.406-1.577,0.878-3.113,1.366-4.65c0.504-1.593,1.057-3.154,1.642-4.69c10.275-26.824,32.88-46.089,57.388-61.395
			c10.112-6.316,2.414-23.467-7.852-17.054c-30.287,18.915-56.453,41.976-68.109,75.124c-0.585,1.666-1.105,3.373-1.618,5.088
			c-0.48,1.618-0.951,3.243-1.366,4.91c-0.602,0.065-1.211,0.049-1.805,0.146c-6.389,1.049-12.014,3.829-16.753,7.6
			c-1.707,1.357-3.276,2.845-4.706,4.479c-4.869,5.536-8.023,12.429-8.909,19.939c-0.146,1.276-0.309,2.544-0.317,3.853
			c-0.008,0.602,0.089,1.219,0.114,1.829c0.057,1.496,0.033,2.983,0.276,4.495c0.024,0.154,0.089,0.301,0.114,0.455
			c0.081,0.48,0.252,0.919,0.358,1.39c1.382,6.357,4.292,12.022,8.381,16.623C341.677,215.102,342.798,216.305,344.042,217.37z"/>
		<path style="fill:#010002;" d="M411.566,260.728c1.447,0.732,2.918,1.414,4.471,1.951c3.78,1.301,7.803,2.065,12.006,2.065
			c1.991,0,4.007-0.163,5.983-0.488c9.681-1.585,18.159-6.852,23.882-14.81c5.723-7.966,7.999-17.688,6.413-27.369
			c-2.926-17.826-18.143-30.775-36.188-30.775c-1.991,0-4.007,0.163-5.983,0.488c-2.845,0.463-5.544,1.341-8.145,2.422
			c-1.813,0.756-3.601,1.561-5.267,2.585c-2.341,1.455-4.463,3.243-6.43,5.202c-1.439,1.431-2.829,2.918-4.04,4.601
			c-0.488,0.683-0.805,1.439-1.244,2.146c-0.886,1.423-1.788,2.829-2.463,4.341c-0.35,0.772-0.528,1.601-0.821,2.398
			c-0.276,0.764-0.561,1.528-0.788,2.309c-0.528,1.821-0.878,3.666-1.122,5.552c-0.26,2.008-0.358,4.024-0.276,6.072
			c0.057,1.52,0.049,3.032,0.301,4.56c1.674,10.226,7.47,18.736,15.444,24.223C408.664,259.143,410.078,259.98,411.566,260.728z"/>
		<path style="fill:#010002;" d="M406.689,129.939c-27.41,47.463,48.706,52.429,69.979,32.295
			C476.676,162.234,434.098,82.468,406.689,129.939z"/>
		<path style="fill:#010002;" d="M231.429,435.696c127.814,0,231.429-30.458,231.429-158.271h-55.014h-6.438h-7.584h-4.877h-5.804
			h-5.958H350.39h-7.43h-5.706h-1.057h-3.829h-4.845h-7.633h-6.04h-5.609h-37.587h-16.371h-4.845h-4.885H27.572H0
			C0,405.238,103.615,435.696,231.429,435.696z"/>
		<path style="fill:#010002;" d="M184.763,68.772c-5.511-0.845-15.696-2.162-26.215-2.162c-16.623,0-27.662,3.178-31.929,9.185
			c-2.439,3.438-2.666,8.055-0.902,13.941c0.154,0.52,0.228,0.984,0.415,1.52c1.902,5.438,4.308,9.567,7.186,12.453
			c3.219,3.235,7.015,4.91,11.396,4.91C159.881,108.618,178.723,89.459,184.763,68.772z"/>
	</g>
</g>
<g>
</g>
<g>
</g>
<g>
</g>
<g>
</g>
<g>
</g>
<g>
</g>
<g>
</g>
<g>
</g>
<g>
</g>
<g>
</g>
<g>
</g>
<g>
</g>
<g>
</g>
<g>
</g>
<g>
</g>
</svg>
