<?xml version="1.0" encoding="iso-8859-1"?>
<!-- Generator: Adobe Illustrator 18.1.1, SVG Export Plug-In . SVG Version: 6.00 Build 0)  -->
<svg version="1.1" id="Capa_1" xmlns="http://www.w3.org/2000/svg" xmlns:xlink="http://www.w3.org/1999/xlink" x="0px" y="0px"
	 viewBox="0 0 496.072 496.072" style="enable-background:new 0 0 496.072 496.072;" xml:space="preserve">
<g>
	<g>
		<path style="fill:#010002;" d="M206.191,280.613c0.496,1.268,0.959,2.56,1.349,3.885c0.471,1.626,0.845,3.292,1.146,4.991h10.006
			c-0.935-2.894-1.772-5.812-2.471-8.754c-0.309-1.325-0.512-2.666-0.78-4.007c-0.268-1.382-0.512-2.764-0.732-4.154
			c-1.211-7.763-1.609-15.647-1.057-23.565c-6.308,5.747-14.217,9.803-23.101,11.339c5.82,4.259,10.608,9.852,13.908,16.404
			C205.086,278.012,205.671,279.296,206.191,280.613z"/>
		<path style="fill:#010002;" d="M176.002,261.844c-1.26-0.447-2.561-0.805-3.877-1.122c-0.065,0.341-0.098,0.683-0.163,1.016
			c-0.658,3.178-1.65,6.251-2.934,9.169c-3.251,7.389-8.413,13.786-14.883,18.582h23.735h5.617h5.666h0.813h5.357h4.942
			c-0.293-1.341-0.602-2.658-1.024-3.934c-0.471-1.422-0.992-2.812-1.618-4.154C193.332,272.224,185.561,265.209,176.002,261.844z"
			/>
		<path style="fill:#010002;" d="M171.669,241.945c0.471,2.04,0.862,4.121,1.057,6.267c0.106,1.13,0.114,2.252,0.138,3.365
			c0.024,0.008,0.049,0.008,0.065,0.016c1.301,0.341,2.617,0.634,3.967,0.837c2.999,0.447,6.072,0.658,9.242,0.358
			c13.103-1.203,24.044-8.966,29.905-19.736c0.65-2.837,1.309-5.674,2.211-8.494c0.163-0.504,0.374-0.992,0.545-1.496
			c0.447-1.317,0.927-2.609,1.423-3.902c0.081-0.211,0.146-0.423,0.228-0.626c0.114-1.162,0.033-2.365,0.033-3.544
			s0.138-2.333,0.033-3.528c-0.967-10.518-6.137-19.557-13.672-25.784c-7.031,6.072-15.908,10.112-25.841,11.03
			c-1.439,0.13-2.861,0.195-4.268,0.195c-5.186,0-10.12-0.992-14.778-2.561c-0.033,7.917-1.926,15.591-5.812,22.427
			C163.785,223.063,169.336,231.817,171.669,241.945z"/>
		<path style="fill:#010002;" d="M118.102,289.303c0.301,0.073,0.61,0.13,0.91,0.195h3.195h4.121h7.917
			c15.225-3.073,26.767-15.005,29.669-29.84c0.154-0.805,0.406-1.569,0.512-2.39c0.065-0.496,0.098-1,0.138-1.504
			c0.089-0.992,0.016-2.008,0.024-3.008c0-0.415,0.024-0.821,0.008-1.236c-0.024-0.862,0.106-1.699,0.024-2.569
			c-0.016-0.195-0.081-0.366-0.106-0.561c-1.073-10.031-5.909-18.712-13.022-24.817v0.008c-1.341,1.609-2.894,2.967-4.414,4.357
			c-1.049,0.967-2.081,1.935-3.203,2.796c-1.114,0.854-2.317,1.569-3.503,2.309c-6.048,3.788-12.827,6.308-20.134,6.982
			c-1.439,0.13-2.861,0.195-4.268,0.195c-1.195,0-2.325-0.236-3.495-0.325c0.154,1,0.333,1.992,0.431,3.008
			c1.276,13.94-3.837,27.003-12.9,36.343C104.934,284.19,111.128,287.693,118.102,289.303z"/>
		<path style="fill:#010002;" d="M160.988,183.899c0.114,0.504,0.252,0.992,0.35,1.496c5.739,2.552,12.136,3.861,18.907,3.203
			c7.299-0.675,13.867-3.471,19.33-7.6c1.195-0.902,2.276-1.902,3.357-2.934c1.024-0.984,2.105-1.902,3.008-2.991
			c6.243-7.486,9.632-17.346,8.673-27.8c-1.813-19.687-18.062-34.53-37.798-34.53c-1.171,0-2.333,0.049-3.52,0.163
			c-20.785,1.91-36.148,20.313-34.368,41.09c8.649,4.926,15.542,12.575,19.509,21.89c0.536,1.268,1.016,2.577,1.439,3.902
			C160.305,181.136,160.671,182.509,160.988,183.899z"/>
		<path style="fill:#010002;" d="M103.836,238.434c-0.366-1.585-0.854-3.105-1.406-4.601c-0.691-1.861-1.479-3.658-2.439-5.357
			c-0.325-0.577-0.699-1.13-1.049-1.691c-0.74-1.171-1.471-2.333-2.333-3.414c-0.878-1.097-1.837-2.113-2.829-3.105
			c-3.13-3.129-6.779-5.657-10.835-7.527c-1.715-0.788-3.487-1.423-5.332-1.959c-1.593-0.463-3.195-0.862-4.861-1.114
			c-1.878-0.285-3.772-0.536-5.731-0.536c-1.171,0-2.341,0.057-3.528,0.171c-10.112,0.927-19.257,5.739-25.751,13.542
			c-6.487,7.803-9.551,17.672-8.624,27.775c1.918,20.85,20.143,36.4,41.326,34.376c6.804-0.626,12.924-3.154,18.159-6.82
			c1.146-0.805,2.276-1.601,3.316-2.52c1.024-0.902,1.975-1.87,2.894-2.878c7.023-7.633,11.014-17.997,9.99-29.108
			C104.649,241.856,104.243,240.149,103.836,238.434z"/>
		<path style="fill:#010002;" d="M7.188,113.221c29.58,9.283,58.103,23.532,74.661,49.999c0.748,1.195,1.406,2.471,2.097,3.715
			c0.723,1.292,1.52,2.52,2.187,3.877c-5.739,7.356-8.876,16.769-7.958,26.776c0.163,1.756,0.593,3.406,0.984,5.08
			c8.039,2.17,15.233,6.422,20.89,12.242c0.975,1.008,1.918,2.057,2.804,3.146c0.853,1.049,1.65,2.146,2.406,3.276
			c2.122,3.162,3.82,6.625,5.121,10.299c2.959,0.431,5.983,0.618,9.112,0.317c6.73-0.618,12.941-3.097,18.322-6.885
			c1.26-0.886,2.455-1.837,3.609-2.878c1.114-1.016,2.227-2.04,3.227-3.195c0.073-0.081,0.154-0.138,0.228-0.219
			c0.114-0.13,0.26-0.228,0.366-0.366c0.723-0.87,1.244-1.853,1.878-2.772c0.788-1.138,1.674-2.219,2.325-3.422
			c3.536-6.503,5.08-13.908,4.414-21.443c0-0.049,0.008-0.089,0-0.138c-0.008-0.122-0.057-0.228-0.065-0.35
			c-0.171-1.65-0.536-3.227-0.902-4.804c-0.024-0.106-0.033-0.219-0.057-0.325c-0.333-1.398-0.764-2.731-1.252-4.064
			c-0.374-1.032-0.732-2.065-1.187-3.048c-1.975-4.268-4.69-8.072-8.007-11.282c-1.886-1.821-3.902-3.495-6.129-4.893
			c-1.455-0.91-3.032-1.626-4.609-2.333c-4.78-2.146-10.014-3.438-15.599-3.438c-1.171,0-2.341,0.057-3.528,0.171
			c-3.942,0.366-7.608,1.479-11.079,2.934c-0.667-1.203-1.374-2.357-2.073-3.528c-0.732-1.219-1.439-2.463-2.203-3.633
			c-19.777-30.32-51.69-46.528-86.651-57.502C-1.136,90.86-4.314,109.604,7.188,113.221z"/>
		<path style="fill:#010002;" d="M62.055,148.02C23.16,108.523,1.758,197.425,1.758,197.425
			C27.704,211.732,100.951,187.517,62.055,148.02z"/>
		<path style="fill:#010002;" d="M486.855,53.655c-33.01,2.853-64.598,10.153-90.17,28.93c-1.894,1.39-3.747,2.869-5.576,4.398
			c-1.861,1.553-3.682,3.186-5.471,4.877c-4.064-1.016-8.153-1.658-12.217-1.658c-23.15,0-45.114,15.916-52.99,40.553
			c-0.415,1.309-0.732,2.617-1.057,3.926c-2.057,6.105-7.852,17.997-23.272,25.727c-21.468,10.754-32.604,21.24-32.604,21.24
			l0.041,0.024c-12.9,9.592-23.321,22.199-30.019,37.204c-0.577,1.292-1.138,2.585-1.65,3.91c-0.488,1.244-0.943,2.504-1.382,3.772
			c-0.195,0.577-0.439,1.13-0.626,1.715c-4.519,14.136-5.332,28.621-3.138,42.626c0.219,1.374,0.463,2.747,0.732,4.105
			c0.285,1.39,0.545,2.78,0.886,4.154c0.87,3.495,1.951,6.934,3.195,10.331h6.852h5.763h5.536h3.268h5.519h5.357h177.195
			c4.316-17.338,3.365-35.026-1.943-51.543l0.081,0.008c0,0-2.463-14.948-13.705-36.172c-8.901-16.802-5.714-31.067-3.999-36.294
			c0.26-0.723,0.569-1.414,0.805-2.154c0.602-1.878,1.105-3.764,1.52-5.649c-10.933-7.178-19.704-16.615-22.817-27.141
			c-1.845-6.235-2.739-16.737,5.763-27.71c-0.593-0.528-1.236-1.008-1.853-1.512c1.618-1.317,3.268-2.593,4.958-3.796
			c1.74-1.236,3.512-2.414,5.316-3.536c0.927-0.577,1.894-1.097,2.837-1.642c0.805-0.569,1.585-1.146,2.455-1.715
			c5.975-3.877,11.754-6.308,17.257-7.283c15.306-5.406,31.823-8.194,48.316-9.616C498.763,72.652,499.771,52.542,486.855,53.655z"
			/>
		<path style="fill:#010002;" d="M443.082,91.006c-5.202,0-11.217,1.935-18.192,6.462c-1.366,0.886-2.634,1.78-3.82,2.674
			c-1.74,1.317-3.227,2.65-4.593,3.991c-1.561,1.528-2.943,3.073-4.048,4.617c-10.307,14.379-1.87,29.287,12.583,39.919
			c1.853,1.366,3.796,2.658,5.82,3.869c1.837,1.097,3.731,2.138,5.666,3.105c9.925,4.918,20.874,7.901,30.165,7.901
			c3.341,0,6.462-0.382,9.242-1.203C475.906,162.334,474.597,91.006,443.082,91.006z"/>
		<path style="fill:#010002;" d="M268.716,297.626h-4.682h-4.617h-18.289h-6.235h-1.089h-5.527h-6.544h-0.122h-12.209h-3.942h-0.309
			h-4.048h-6.698h-0.52h-4.097h-3.333h-1.349h-49.129h-10.518h-4.032h-3.885h-0.179H41.596
			c0,116.962,94.812,144.835,211.774,144.835s211.774-27.873,211.774-144.835h-13.705h-6.348h-6.495H268.716z"/>
	</g>
</g>
<g>
</g>
<g>
</g>
<g>
</g>
<g>
</g>
<g>
</g>
<g>
</g>
<g>
</g>
<g>
</g>
<g>
</g>
<g>
</g>
<g>
</g>
<g>
</g>
<g>
</g>
<g>
</g>
<g>
</g>
</svg>
