<?xml version="1.0" encoding="iso-8859-1"?>
<!-- Generator: Adobe Illustrator 16.0.0, SVG Export Plug-In . SVG Version: 6.00 Build 0)  -->
<!DOCTYPE svg PUBLIC "-//W3C//DTD SVG 1.1//EN" "http://www.w3.org/Graphics/SVG/1.1/DTD/svg11.dtd">
<svg version="1.1" id="Capa_1" xmlns="http://www.w3.org/2000/svg" xmlns:xlink="http://www.w3.org/1999/xlink" x="0px" y="0px"
	 width="47.873px" height="47.873px" viewBox="0 0 47.873 47.873" style="enable-background:new 0 0 47.873 47.873;"
	 xml:space="preserve">
<g>
	<g id="Ice_Cream">
		<g>
			<g>
				<path d="M23.7,47.873c-0.002,0-0.005,0-0.008,0c-0.417-0.003-0.789-0.266-0.932-0.657l-8.533-23.372
					c-0.189-0.519,0.078-1.093,0.597-1.282c0.517-0.188,1.093,0.078,1.282,0.597l7.616,20.86l8.011-20.907
					c0.197-0.516,0.775-0.775,1.291-0.576c0.517,0.197,0.773,0.776,0.576,1.292l-8.966,23.403
					C24.486,47.618,24.114,47.873,23.7,47.873z"/>
			</g>
			<path d="M21.175,40.953c-0.12,0-0.241-0.021-0.359-0.067c-0.516-0.198-0.772-0.776-0.574-1.292l6.241-16.201
				c0.199-0.516,0.779-0.771,1.293-0.574c0.516,0.199,0.771,0.777,0.574,1.292l-6.243,16.201
				C21.955,40.709,21.576,40.953,21.175,40.953z"/>
			<path d="M18.665,34.091c-0.12,0-0.241-0.021-0.358-0.067c-0.516-0.197-0.773-0.775-0.575-1.291l3.658-9.527
				c0.198-0.517,0.78-0.774,1.292-0.575c0.516,0.198,0.773,0.776,0.575,1.292l-3.658,9.527
				C19.446,33.848,19.067,34.091,18.665,34.091z"/>
		</g>
		<g>
			<path d="M37.729,16.408c-0.553,0-1-0.448-1-1C36.729,7.89,31.115,2,23.948,2C16.78,2,11.165,7.89,11.165,15.408
				c0,0.552-0.448,1-1,1c-0.552,0-1-0.448-1-1C9.165,6.768,15.659,0,23.948,0s14.781,6.768,14.781,15.408
				C38.729,15.96,38.282,16.408,37.729,16.408z"/>
			<g>
				<path style="stroke:#000000;stroke-width:2;stroke-linecap:round;stroke-linejoin:round;stroke-miterlimit:10;" d="
					M10.154,15.356"/>
				<path style="stroke:#000000;stroke-width:2;stroke-linecap:round;stroke-linejoin:round;stroke-miterlimit:10;" d="
					M10.138,19.93"/>
				<path d="M10.138,20.93c-0.001,0-0.002,0-0.003,0c-1.807-0.006-3.27-1.483-3.265-3.291c0.003-0.875,0.346-1.698,0.966-2.314
					c0.621-0.618,1.438-0.967,2.322-0.953c0.552,0.002,0.999,0.451,0.997,1.003c-0.002,0.551-0.449,0.997-1,0.997
					c-0.002,0-0.005,0-0.008,0c-0.34,0-0.659,0.131-0.899,0.371c-0.243,0.24-0.377,0.561-0.378,0.902
					c-0.002,0.706,0.568,1.283,1.271,1.285c0.552,0.002,0.999,0.451,0.997,1.003C11.136,20.485,10.688,20.93,10.138,20.93z"/>
			</g>
			<g>
				<path style="stroke:#000000;stroke-width:2;stroke-linecap:round;stroke-linejoin:round;stroke-miterlimit:10;" d="
					M37.716,15.398"/>
				<path style="stroke:#000000;stroke-width:2;stroke-linecap:round;stroke-linejoin:round;stroke-miterlimit:10;" d="
					M37.731,19.972"/>
				<path d="M37.731,20.972c-0.551,0-0.998-0.445-1-0.997c-0.002-0.552,0.443-1.001,0.996-1.003
					c0.705-0.002,1.275-0.579,1.273-1.285c-0.001-0.341-0.135-0.662-0.376-0.902c-0.241-0.239-0.562-0.371-0.899-0.371
					c-0.004,0-0.006,0-0.008,0c-0.552,0-0.998-0.445-1-0.997s0.443-1.001,0.996-1.003c0.004,0,0.008,0,0.012,0
					c0.873,0,1.692,0.338,2.311,0.953c0.621,0.617,0.964,1.439,0.967,2.315c0.006,1.808-1.459,3.285-3.266,3.291
					C37.733,20.972,37.731,20.972,37.731,20.972z"/>
			</g>
			<g>
				<path style="stroke:#000000;stroke-width:2;stroke-linecap:round;stroke-linejoin:round;stroke-miterlimit:10;" d="
					M10.181,19.96"/>
				<path style="stroke:#000000;stroke-width:2;stroke-linecap:round;stroke-linejoin:round;stroke-miterlimit:10;" d="M17.1,19.96"
					/>
				<path d="M13.65,24.404c-2.452,0-4.446-1.994-4.446-4.444c0-0.552,0.448-1,1-1c0.552,0,1,0.448,1,1
					c0,1.348,1.097,2.444,2.446,2.444c1.351,0,2.45-1.097,2.45-2.444c0-0.552,0.448-1,1-1c0.552,0,1,0.448,1,1
					C18.1,22.411,16.104,24.404,13.65,24.404z"/>
			</g>
			<g>
				<path style="stroke:#000000;stroke-width:2;stroke-linecap:round;stroke-linejoin:round;stroke-miterlimit:10;" d="
					M17.056,19.96"/>
				<path style="stroke:#000000;stroke-width:2;stroke-linecap:round;stroke-linejoin:round;stroke-miterlimit:10;" d="
					M23.975,19.96"/>
				<path d="M20.525,24.404c-2.452,0-4.446-1.994-4.446-4.444c0-0.552,0.448-1,1-1c0.552,0,1,0.448,1,1
					c0,1.348,1.097,2.444,2.446,2.444c1.351,0,2.45-1.097,2.45-2.444c0-0.552,0.448-1,1-1c0.552,0,1,0.448,1,1
					C24.975,22.411,22.979,24.404,20.525,24.404z"/>
			</g>
			<g>
				<path style="stroke:#000000;stroke-width:2;stroke-linecap:round;stroke-linejoin:round;stroke-miterlimit:10;" d="
					M23.931,19.96"/>
				<path style="stroke:#000000;stroke-width:2;stroke-linecap:round;stroke-linejoin:round;stroke-miterlimit:10;" d="
					M30.851,19.96"/>
				<path d="M27.399,24.404c-2.451,0-4.445-1.994-4.445-4.444c0-0.552,0.448-1,1-1c0.552,0,1,0.448,1,1
					c0,1.348,1.098,2.444,2.445,2.444c1.352,0,2.451-1.097,2.451-2.444c0-0.552,0.447-1,1-1c0.552,0,1,0.448,1,1
					C31.851,22.411,29.854,24.404,27.399,24.404z"/>
			</g>
			<g>
				<path style="stroke:#000000;stroke-width:2;stroke-linecap:round;stroke-linejoin:round;stroke-miterlimit:10;" d="
					M30.806,19.96"/>
				<path style="stroke:#000000;stroke-width:2;stroke-linecap:round;stroke-linejoin:round;stroke-miterlimit:10;" d="
					M37.726,19.96"/>
				<path d="M34.274,24.404c-2.451,0-4.445-1.994-4.445-4.444c0-0.552,0.448-1,1-1c0.553,0,1,0.448,1,1
					c0,1.348,1.098,2.444,2.445,2.444c1.352,0,2.451-1.097,2.451-2.444c0-0.552,0.447-1,1-1c0.552,0,1,0.448,1,1
					C38.726,22.411,36.729,24.404,34.274,24.404z"/>
			</g>
		</g>
		<path d="M36.761,35.734c-1.699,0-3.029-1.329-3.029-3.026c0-1.287,1.152-3.446,2.277-5.39l0.067-0.117
			c0.134-0.232,0.399-0.348,0.649-0.375c0.266,0,0.512,0.141,0.646,0.369c0.567,0.966,2.42,4.216,2.42,5.513
			C39.792,34.406,38.46,35.734,36.761,35.734z M36.724,29.1c-0.992,1.801-1.492,3.014-1.492,3.608c0,0.871,0.656,1.526,1.529,1.526
			s1.53-0.656,1.53-1.526C38.292,32.221,37.56,30.639,36.724,29.1z"/>
	</g>
	<g>
	</g>
	<g>
	</g>
	<g>
	</g>
	<g>
	</g>
	<g>
	</g>
	<g>
	</g>
	<g>
	</g>
	<g>
	</g>
	<g>
	</g>
	<g>
	</g>
	<g>
	</g>
	<g>
	</g>
	<g>
	</g>
	<g>
	</g>
	<g>
	</g>
</g>
<g>
</g>
<g>
</g>
<g>
</g>
<g>
</g>
<g>
</g>
<g>
</g>
<g>
</g>
<g>
</g>
<g>
</g>
<g>
</g>
<g>
</g>
<g>
</g>
<g>
</g>
<g>
</g>
<g>
</g>
</svg>
