<?xml version="1.0" encoding="utf-8"?>
<!-- Generator: Adobe Illustrator 16.0.0, SVG Export Plug-In . SVG Version: 6.00 Build 0)  -->
<!DOCTYPE svg PUBLIC "-//W3C//DTD SVG 1.1//EN" "http://www.w3.org/Graphics/SVG/1.1/DTD/svg11.dtd">
<svg version="1.1" id="Layer_1" xmlns="http://www.w3.org/2000/svg" xmlns:xlink="http://www.w3.org/1999/xlink" x="0px" y="0px"
	 width="512px" height="512px" viewBox="0 0 512 512" enable-background="new 0 0 512 512" xml:space="preserve">
<g>
	<path d="M468.456,131.992c-28.585,11.23-31.648,55.13-162.327,15.839c-68.672-20.646-121.369-23.073-156.095-20.773
		c16.36,9.077,32.362,21.808,46.657,37.714c28.832,32.112,63.743,78.262,77.828,150.889c11.376,58.618-5.783,116.386-40.737,154.954
		c66.292-27.218,134.135-86.626,175.46-175.275c24.311-52.148,57.172-46.963,80.653-76.569
		C511.199,191.907,497.042,120.762,468.456,131.992z"/>
	<path d="M242.45,321.884c-12.379-63.807-43.006-105.155-70.062-135.271c-21.981-24.472-51.373-42.336-75.581-42.336
		c-7.631,0-14.747,1.771-20.961,5.678c-11.914,7.498-18.797,20.626-20.513,36.18c-3.421,30.977-13.391,60.345-29.399,87.096
		c-17.451,29.159-23.871,66.918-14.89,105.186c14.723,62.772,65.959,106.033,120.58,106.033c7.824,0,15.721-0.877,23.584-2.727
		C217.995,466.982,256.495,394.272,242.45,321.884z M132.348,415.091c-17.896,3.205-35.812-13.288-40.014-36.818
		c-4.211-23.512,6.883-45.176,24.773-48.382c17.898-3.207,35.804,13.289,40.015,36.802
		C161.327,390.222,150.223,411.884,132.348,415.091z"/>
</g>
</svg>
