<?xml version="1.0" encoding="iso-8859-1"?>
<!-- Generator: Adobe Illustrator 16.0.0, SVG Export Plug-In . SVG Version: 6.00 Build 0)  -->
<!DOCTYPE svg PUBLIC "-//W3C//DTD SVG 1.1//EN" "http://www.w3.org/Graphics/SVG/1.1/DTD/svg11.dtd">
<svg version="1.1" id="Capa_1" xmlns="http://www.w3.org/2000/svg" xmlns:xlink="http://www.w3.org/1999/xlink" x="0px" y="0px"
	 width="31.907px" height="31.907px" viewBox="0 0 31.907 31.907" style="enable-background:new 0 0 31.907 31.907;"
	 xml:space="preserve">
<g>
	<g>
		<path d="M25.765,19.269l-11.309,7.681c-0.46,0.332-1.003,0.508-1.567,0.508c-0.67,0-1.363-0.256-1.862-0.688l-10.88-9.547
			c-0.188,0.316-0.156,0.688-0.116,1.318c0.024,0.396,0.176,0.715,0.431,0.939l11.197,9.822c0.483,0.428,1.778,0.389,2.283,0.024
			l11.394-7.74c0.654,0.199,1.805,0.459,2.812,0.313c1.271-0.18,2.922-0.938,3.402-2.485c0.069-0.226,0.248-0.75,0.25-1.453
			c-0.992,0.843-2.242,1.312-3.302,1.461C27.56,19.562,26.523,19.433,25.765,19.269z"/>
		<path d="M0.566,15.284l10.941,9.52c0.457,0.459,1.976,1.072,3.109-0.059l10.821-7.352c0.656,0.197,1.805,0.457,2.812,0.312
			c1.271-0.181,2.921-0.938,3.402-2.486c0.17-0.543,1.005-2.854-1.692-5.208c-0.947-0.812-9.161-7.715-13.865-7.715
			c-1.022,0-3.322,0.373-3.58,3.661L0.617,12.633c-0.602,0.442-0.536,0.812-0.48,1.715C0.16,14.744,0.312,15.061,0.566,15.284z
			 M4.623,13.696c0.03-0.296,0.203-0.558,0.462-0.702l9.117-5.105c0.309-0.172,0.499-0.495,0.499-0.849
			c0-2.049,0.886-2.049,1.415-2.049c3.107,0,9.453,4.84,11.637,6.704c0.775,0.712,1.15,1.396,1.011,1.85
			c-0.138,0.443-0.82,0.858-1.588,0.968c-0.93,0.131-2.128-0.343-2.139-0.346c-0.115-0.047-0.236-0.068-0.355-0.068
			c-0.193,0-0.385,0.056-0.548,0.166l-10.046,6.828c-0.54,0.365-1.258,0.32-1.748-0.109l-7.41-6.504
			C4.706,14.282,4.59,13.991,4.623,13.696z"/>
		<ellipse cx="9.252" cy="13.481" rx="1.041" ry="0.758"/>
		<ellipse cx="15.031" cy="16.947" rx="1.042" ry="0.758"/>
		<ellipse cx="17.342" cy="8.858" rx="1.041" ry="0.759"/>
		<ellipse cx="21.965" cy="11.17" rx="0.939" ry="0.685"/>
		<ellipse cx="16.186" cy="12.325" rx="0.942" ry="0.687"/>
	</g>
</g>
<g>
</g>
<g>
</g>
<g>
</g>
<g>
</g>
<g>
</g>
<g>
</g>
<g>
</g>
<g>
</g>
<g>
</g>
<g>
</g>
<g>
</g>
<g>
</g>
<g>
</g>
<g>
</g>
<g>
</g>
</svg>
