<?xml version="1.0" encoding="iso-8859-1"?>
<!-- Generator: Adobe Illustrator 18.1.1, SVG Export Plug-In . SVG Version: 6.00 Build 0)  -->
<svg version="1.1" id="Capa_1" xmlns="http://www.w3.org/2000/svg" xmlns:xlink="http://www.w3.org/1999/xlink" x="0px" y="0px"
	 viewBox="0 0 328.432 328.432" style="enable-background:new 0 0 328.432 328.432;" xml:space="preserve">
<g>
	<g>
		<path style="fill:#010002;" d="M5.702,24.471c-3.234,0.644-4.242,3.3-2.255,5.931L20.303,52.7
			c6.2-4.553,13.306-8.103,21.272-10.293c3.025-0.829,6.158-1.36,9.344-1.718l2.798-20.079c0.453-3.264-1.796-5.388-5.024-4.738
			L5.702,24.471z"/>
		<path style="fill:#010002;" d="M323.503,258.778l-13.229,2.088l-3.013,0.477l-3.025,0.477
			c2.47-31.416-16.654-66.196-57.258-68.607c-56.822-3.371-117.977-43.302-130.418-103.376C111.035,63.16,84.196,46.19,58.115,46.19
			c-2.697,0-5.382,0.215-8.037,0.585c-2.333,0.328-4.648,0.764-6.91,1.39c-7.309,2.011-13.706,5.239-19.243,9.314
			C4.598,71.704-3.631,96.831,1.489,121.564C24.76,233.938,137.844,306.077,246.984,312.551c1.444,0.084,2.858,0.125,4.242,0.125
			c18.879,0,32.681-7.811,41.517-19.392l2.482,1.808l2.226,1.617l17.173,12.507c2.661,1.939,5.299,0.883,5.889-2.357l7.823-43.14
			C328.921,260.472,326.761,258.259,323.503,258.778z M225.097,236.969c-44.441-1.062-81.519-20.359-111.986-52.103
			c-13.318-13.879,7.751-35.002,21.099-21.099c25.025,26.075,54.179,42.49,90.887,43.367
			C244.305,207.594,244.347,237.428,225.097,236.969z"/>
	</g>
</g>
<g>
</g>
<g>
</g>
<g>
</g>
<g>
</g>
<g>
</g>
<g>
</g>
<g>
</g>
<g>
</g>
<g>
</g>
<g>
</g>
<g>
</g>
<g>
</g>
<g>
</g>
<g>
</g>
<g>
</g>
</svg>
