<?xml version="1.0" encoding="utf-8"?>
<!-- Generator: Adobe Illustrator 16.0.0, SVG Export Plug-In . SVG Version: 6.00 Build 0)  -->
<!DOCTYPE svg PUBLIC "-//W3C//DTD SVG 1.1//EN" "http://www.w3.org/Graphics/SVG/1.1/DTD/svg11.dtd">
<svg version="1.1" id="Capa_1" xmlns="http://www.w3.org/2000/svg" xmlns:xlink="http://www.w3.org/1999/xlink" x="0px" y="0px"
	 width="486.118px" height="486.119px" viewBox="0 0 486.118 486.119" enable-background="new 0 0 486.118 486.119"
	 xml:space="preserve">
<g>
	<path d="M406.211,407.87l3.705,11.505c0,43.348-87.756,66.744-166.856,66.744c-79.084,0-166.858-23.396-166.858-66.744
		l3.708-12.741V75.395l-3.708-8.65C76.202,23.398,163.976,0,243.06,0c79.103,0,166.856,23.398,166.856,66.744l-3.705,6.802V407.87z
		 M383.958,251.533c0,0-15.308,16.974-67.027,25.874c0.052,0.854,0.111,1.713,0.111,2.586c0,38.479-31.297,69.786-69.781,69.786
		c-38.48,0-69.79-31.308-69.79-69.786c0-0.784,0.054-1.555,0.101-2.329c-55.179-8.765-75.417-25.901-75.417-25.901v132.702v34.915
		c0,18.579,53.615,44.491,140.901,44.491c87.287,0,140.902-25.912,140.902-44.491v-34.915V251.533L383.958,251.533z M247.26,340.221
		c33.211,0,60.224-27.021,60.224-60.233c0-0.887-0.062-1.754-0.121-2.622c-2.717-30.888-28.534-55.142-60.12-55.142
		c-31.357,0-57,23.896-60.041,54.451l-0.049,0.746c-0.056,0.851-0.119,1.699-0.119,2.567
		C187.028,313.199,214.051,340.221,247.26,340.221z M383.958,66.739c0-18.582-53.615-44.494-140.897-44.494
		c-87.287,0-140.902,25.912-140.902,44.494c0,18.582,53.615,44.494,140.902,44.494C330.342,111.233,383.958,85.326,383.958,66.739z"
		/>
</g>
</svg>
