<?xml version="1.0" encoding="utf-8"?>
<!-- Generator: Adobe Illustrator 16.0.0, SVG Export Plug-In . SVG Version: 6.00 Build 0)  -->
<!DOCTYPE svg PUBLIC "-//W3C//DTD SVG 1.1//EN" "http://www.w3.org/Graphics/SVG/1.1/DTD/svg11.dtd">
<svg version="1.1" id="Layer_1" xmlns="http://www.w3.org/2000/svg" xmlns:xlink="http://www.w3.org/1999/xlink" x="0px" y="0px"
	 width="501.57px" height="242.591px" viewBox="0 0 501.57 242.591" enable-background="new 0 0 501.57 242.591"
	 xml:space="preserve">
<g>
	<g>
		<g>
			<polygon fill="#A2CD3A" points="131.493,119.58 182.948,208.449 234.338,119.433 131.555,119.471 			"/>
		</g>
		<g>
			<polygon fill="#A2CD3A" points="124.311,115.259 72.915,26.238 21.476,115.33 124.234,115.391 			"/>
		</g>
		<g>
			<polygon fill="#A2CD3A" points="72.958,212.617 124.234,123.776 124.218,123.776 72.915,212.634 175.687,212.634 
				175.687,212.634 			"/>
		</g>
		<polygon fill="#D1D7C3" points="21.395,123.71 72.915,212.634 124.218,123.776 		"/>
		<polygon fill="#D1D7C3" points="234.338,119.433 182.951,30.428 131.555,119.471 		"/>
		<g>
			<polygon fill="#6FA642" points="175.69,26.238 72.915,26.238 124.311,115.259 			"/>
		</g>
		<g>
			<polygon fill="#6FA642" points="72.958,212.617 175.687,212.634 124.234,123.776 124.234,123.776 			"/>
		</g>
		<polygon fill="none" points="124.218,123.776 124.234,123.776 124.234,123.776 123.026,121.686 130.279,117.486 131.493,119.58 
			131.555,119.471 182.951,30.428 184.159,28.333 176.901,24.144 175.69,26.238 124.311,115.259 124.234,115.391 21.476,115.33 
			18.969,115.325 18.964,123.705 21.395,123.71 		"/>
		<polygon fill="none" points="131.493,119.58 130.279,117.486 123.026,121.686 124.234,123.776 175.687,212.634 175.687,212.634 
			176.903,214.734 184.156,210.533 182.948,208.449 		"/>
	</g>
	<g>
		<path fill="#222323" d="M183.016,112.155v-0.789c-1.071,1.227-2.128,2.226-3.169,2.995c-1.042,0.77-2.172,1.354-3.389,1.752
			c-1.217,0.399-2.547,0.599-3.987,0.599c-1.91,0-3.676-0.404-5.302-1.212c-1.626-0.809-3.034-1.962-4.221-3.462
			c-1.188-1.5-2.089-3.262-2.702-5.288c-0.614-2.025-0.92-4.216-0.92-6.573c0-4.985,1.217-8.871,3.651-11.655
			c2.434-2.785,5.638-4.178,9.611-4.178c2.298,0,4.236,0.395,5.813,1.183c1.577,0.789,3.116,2.001,4.615,3.637V77.393
			c0-1.636,0.326-2.873,0.979-3.71c0.652-0.837,1.582-1.256,2.79-1.256c1.207,0,2.137,0.384,2.79,1.154
			c0.652,0.77,0.979,1.903,0.979,3.403v35.171c0,1.519-0.351,2.659-1.052,3.418c-0.701,0.76-1.606,1.139-2.716,1.139
			c-1.091,0-1.992-0.394-2.702-1.183C183.371,114.741,183.016,113.616,183.016,112.155z M167.329,100.441
			c0,2.162,0.335,4.001,1.008,5.521c0.671,1.519,1.591,2.663,2.76,3.432c1.168,0.769,2.444,1.153,3.827,1.153
			c1.402,0,2.682-0.364,3.842-1.095c1.158-0.73,2.083-1.85,2.774-3.359c0.691-1.509,1.038-3.393,1.038-5.652
			c0-2.123-0.347-3.948-1.038-5.478c-0.691-1.528-1.626-2.697-2.804-3.505c-1.179-0.808-2.468-1.212-3.871-1.212
			c-1.46,0-2.766,0.414-3.914,1.242c-1.15,0.828-2.041,2.015-2.673,3.563C167.645,96.6,167.329,98.396,167.329,100.441z"/>
		<path fill="#222323" d="M220.816,102.457h-15.599c0.019,1.812,0.384,3.409,1.096,4.792c0.711,1.383,1.654,2.424,2.833,3.125
			c1.178,0.701,2.479,1.052,3.9,1.052c0.953,0,1.826-0.112,2.614-0.336c0.789-0.223,1.553-0.574,2.293-1.051
			c0.74-0.477,1.421-0.988,2.045-1.534s1.432-1.286,2.425-2.22c0.409-0.351,0.993-0.526,1.753-0.526
			c0.818,0,1.479,0.224,1.986,0.672c0.506,0.448,0.759,1.081,0.759,1.898c0,0.721-0.283,1.563-0.848,2.527
			c-0.565,0.964-1.416,1.889-2.556,2.775c-1.14,0.886-2.57,1.621-4.294,2.205c-1.723,0.584-3.706,0.876-5.944,0.876
			c-5.122,0-9.104-1.46-11.947-4.382c-2.844-2.921-4.266-6.884-4.266-11.889c0-2.356,0.351-4.542,1.052-6.558
			s1.724-3.744,3.067-5.185s2.999-2.546,4.966-3.315s4.148-1.154,6.544-1.154c3.115,0,5.788,0.657,8.019,1.972
			c2.229,1.314,3.899,3.014,5.01,5.098c1.11,2.083,1.665,4.206,1.665,6.368c0,2.006-0.575,3.307-1.724,3.9
			C224.516,102.16,222.9,102.457,220.816,102.457z M205.217,97.929h14.46c-0.195-2.727-0.931-4.766-2.206-6.12
			c-1.276-1.354-2.955-2.03-5.039-2.03c-1.986,0-3.618,0.686-4.893,2.06C206.264,93.211,205.489,95.241,205.217,97.929z"/>
		<path fill="#222323" d="M241.353,88.698v0.964c1.402-1.85,2.936-3.208,4.601-4.075c1.665-0.866,3.578-1.3,5.74-1.3
			c2.104,0,3.983,0.458,5.638,1.374s2.892,2.21,3.71,3.885c0.526,0.974,0.866,2.025,1.022,3.155
			c0.156,1.129,0.233,2.571,0.233,4.323v14.84c0,1.597-0.365,2.804-1.095,3.622s-1.68,1.227-2.848,1.227
			c-1.188,0-2.152-0.418-2.892-1.256c-0.74-0.837-1.11-2.035-1.11-3.593V98.572c0-2.629-0.365-4.64-1.095-6.032
			c-0.73-1.392-2.187-2.089-4.368-2.089c-1.421,0-2.716,0.424-3.885,1.271c-1.168,0.847-2.025,2.011-2.571,3.491
			c-0.39,1.188-0.584,3.408-0.584,6.66v9.991c0,1.617-0.375,2.829-1.125,3.637c-0.75,0.808-1.719,1.212-2.906,1.212
			c-1.149,0-2.094-0.418-2.834-1.256c-0.74-0.837-1.11-2.035-1.11-3.593V88.815c0-1.519,0.332-2.653,0.993-3.403
			c0.662-0.749,1.568-1.125,2.717-1.125c0.701,0,1.333,0.166,1.899,0.497c0.564,0.332,1.017,0.828,1.358,1.489
			C241.182,86.936,241.353,87.744,241.353,88.698z"/>
		<path fill="#222323" d="M278.16,105.203v6.661c0,1.617-0.38,2.829-1.14,3.637c-0.76,0.808-1.723,1.212-2.892,1.212
			c-1.149,0-2.094-0.409-2.833-1.227c-0.741-0.818-1.11-2.025-1.11-3.622V89.662c0-3.583,1.295-5.375,3.885-5.375
			c1.324,0,2.279,0.419,2.863,1.257c0.584,0.837,0.905,2.074,0.964,3.71c0.954-1.636,1.932-2.873,2.936-3.71
			c1.003-0.837,2.341-1.257,4.017-1.257c1.674,0,3.3,0.419,4.878,1.257c1.578,0.837,2.366,1.948,2.366,3.33
			c0,0.974-0.335,1.777-1.008,2.41c-0.671,0.633-1.397,0.95-2.176,0.95c-0.292,0-0.998-0.18-2.118-0.541
			c-1.12-0.36-2.107-0.541-2.965-0.541c-1.168,0-2.123,0.307-2.862,0.92c-0.741,0.613-1.315,1.523-1.724,2.731
			c-0.409,1.208-0.691,2.644-0.847,4.309C278.236,100.777,278.16,102.807,278.16,105.203z"/>
		<path fill="#222323" d="M318.706,102.457h-15.599c0.019,1.812,0.384,3.409,1.095,4.792c0.71,1.383,1.655,2.424,2.833,3.125
			c1.178,0.701,2.479,1.052,3.9,1.052c0.954,0,1.826-0.112,2.615-0.336c0.788-0.223,1.552-0.574,2.293-1.051
			c0.74-0.477,1.421-0.988,2.045-1.534c0.623-0.545,1.431-1.286,2.424-2.22c0.41-0.351,0.994-0.526,1.753-0.526
			c0.818,0,1.479,0.224,1.986,0.672c0.506,0.448,0.759,1.081,0.759,1.898c0,0.721-0.282,1.563-0.847,2.527
			c-0.565,0.964-1.417,1.889-2.556,2.775c-1.139,0.886-2.57,1.621-4.294,2.205c-1.724,0.584-3.706,0.876-5.945,0.876
			c-5.122,0-9.104-1.46-11.948-4.382c-2.843-2.921-4.265-6.884-4.265-11.889c0-2.356,0.351-4.542,1.052-6.558
			s1.724-3.744,3.067-5.185s2.999-2.546,4.966-3.315c1.967-0.769,4.148-1.154,6.543-1.154c3.116,0,5.789,0.657,8.019,1.972
			c2.23,1.314,3.899,3.014,5.01,5.098c1.11,2.083,1.665,4.206,1.665,6.368c0,2.006-0.574,3.307-1.724,3.9
			S320.79,102.457,318.706,102.457z M303.106,97.929h14.459c-0.194-2.727-0.93-4.766-2.205-6.12c-1.276-1.354-2.955-2.03-5.039-2.03
			c-1.986,0-3.618,0.686-4.893,2.06C304.153,93.211,303.379,95.241,303.106,97.929z M311.286,72.836h3.944
			c0.993,0,1.49,0.146,1.49,0.438c0,0.156-0.545,0.789-1.636,1.899c-1.091,1.11-2.191,2.171-3.301,3.185
			c-1.11,1.012-1.88,1.626-2.308,1.84c-1.11,0.565-2.297,0.848-3.563,0.848c-0.837,0-1.256-0.244-1.256-0.731
			c0-0.331,0.252-0.905,0.76-1.723l1.314-2.454c0.759-1.421,1.421-2.327,1.986-2.716S310.136,72.836,311.286,72.836z"/>
		<path fill="#222323" d="M354.256,102.457h-15.599c0.019,1.812,0.384,3.409,1.095,4.792c0.711,1.383,1.654,2.424,2.833,3.125
			c1.179,0.701,2.479,1.052,3.9,1.052c0.954,0,1.826-0.112,2.614-0.336c0.789-0.223,1.553-0.574,2.293-1.051
			c0.74-0.477,1.422-0.988,2.045-1.534c0.624-0.545,1.432-1.286,2.425-2.22c0.409-0.351,0.993-0.526,1.753-0.526
			c0.818,0,1.479,0.224,1.986,0.672c0.506,0.448,0.759,1.081,0.759,1.898c0,0.721-0.282,1.563-0.847,2.527
			c-0.565,0.964-1.417,1.889-2.557,2.775c-1.139,0.886-2.57,1.621-4.293,2.205c-1.724,0.584-3.706,0.876-5.945,0.876
			c-5.123,0-9.105-1.46-11.948-4.382c-2.844-2.921-4.265-6.884-4.265-11.889c0-2.356,0.35-4.542,1.051-6.558
			s1.723-3.744,3.067-5.185s2.999-2.546,4.967-3.315c1.966-0.769,4.148-1.154,6.543-1.154c3.116,0,5.788,0.657,8.019,1.972
			c2.23,1.314,3.9,3.014,5.01,5.098c1.11,2.083,1.665,4.206,1.665,6.368c0,2.006-0.574,3.307-1.723,3.9
			C357.957,102.16,356.34,102.457,354.256,102.457z M338.658,97.929h14.46c-0.195-2.727-0.93-4.766-2.206-6.12
			c-1.276-1.354-2.955-2.03-5.039-2.03c-1.986,0-3.618,0.686-4.893,2.06C339.704,93.211,338.93,95.241,338.658,97.929z"/>
		<g>
			<path fill="#6FA642" d="M402.589,69.378c4.75,0,8.83,0.963,12.236,2.891c3.407,1.928,5.985,4.668,7.736,8.221
				c1.75,3.553,2.626,7.726,2.626,12.518c0,3.542-0.479,6.762-1.438,9.658c-0.959,2.897-2.396,5.408-4.313,7.533
				c-1.917,2.125-4.272,3.751-7.063,4.876c-2.793,1.125-5.992,1.688-9.596,1.688c-3.585,0-6.795-0.579-9.627-1.735
				c-2.835-1.156-5.2-2.786-7.096-4.891c-1.896-2.104-3.329-4.636-4.299-7.596c-0.969-2.958-1.453-6.157-1.453-9.596
				c0-3.521,0.506-6.751,1.517-9.689c1.011-2.938,2.474-5.439,4.392-7.502c1.916-2.063,4.251-3.641,7.001-4.735
				C395.962,69.925,399.087,69.378,402.589,69.378z M415.778,92.945c0-3.354-0.542-6.261-1.625-8.72
				c-1.084-2.458-2.631-4.319-4.642-5.58c-2.011-1.26-4.319-1.891-6.923-1.891c-1.855,0-3.569,0.349-5.143,1.047
				c-1.573,0.699-2.928,1.714-4.063,3.048c-1.137,1.333-2.033,3.037-2.688,5.11c-0.657,2.074-0.985,4.402-0.985,6.985
				c0,2.605,0.328,4.96,0.985,7.065c0.655,2.105,1.583,3.849,2.782,5.235c1.197,1.386,2.572,2.422,4.125,3.11
				s3.256,1.032,5.111,1.032c2.375,0,4.557-0.594,6.547-1.782s3.574-3.021,4.752-5.501C415.19,99.625,415.778,96.571,415.778,92.945
				z M406.87,64.627l-3.125-3.657l-3.126,3.657c-0.875,1.042-1.469,1.678-1.781,1.907c-0.313,0.229-0.896,0.344-1.751,0.344h-2.5
				c-0.855,0-1.282-0.146-1.282-0.438c0-0.229,0.323-0.75,0.97-1.563l3.469-4.157c0.292-0.354,0.625-0.767,1.001-1.234
				c0.374-0.469,0.702-0.803,0.983-1c0.281-0.198,0.693-0.354,1.235-0.469c0.542-0.114,1.167-0.172,1.876-0.172h1.75
				c1.375,0,2.317,0.167,2.828,0.5c0.511,0.334,1.267,1.125,2.267,2.376l3.595,4.219c0.604,0.792,0.906,1.262,0.906,1.407
				c0,0.355-0.469,0.531-1.406,0.531h-2.375c-0.626,0-1.121-0.088-1.486-0.266c-0.363-0.177-0.713-0.453-1.047-0.828
				C407.538,65.409,407.204,65.023,406.87,64.627z"/>
			<path fill="#6FA642" d="M402.776,117.512c-3.666,0-7-0.603-9.91-1.791c-2.927-1.194-5.406-2.904-7.369-5.083
				c-1.957-2.172-3.455-4.818-4.453-7.863c-0.988-3.02-1.489-6.327-1.489-9.829c0-3.588,0.523-6.93,1.556-9.932
				c1.041-3.024,2.572-5.638,4.552-7.768c1.983-2.135,4.431-3.791,7.272-4.922c2.826-1.123,6.074-1.693,9.654-1.693
				c4.857,0,9.1,1.005,12.604,2.988c3.524,1.994,6.229,4.868,8.039,8.541c1.793,3.64,2.702,7.963,2.702,12.849
				c0,3.605-0.496,6.934-1.475,9.894c-0.987,2.982-2.491,5.606-4.469,7.799c-1.986,2.201-4.455,3.906-7.34,5.068
				C409.782,116.925,406.46,117.512,402.776,117.512z M402.589,70.126c-3.389,0-6.451,0.534-9.102,1.587
				c-2.635,1.048-4.898,2.579-6.729,4.55c-1.837,1.976-3.261,4.411-4.233,7.235c-0.979,2.846-1.475,6.024-1.475,9.446
				c0,3.344,0.477,6.495,1.416,9.364c0.932,2.845,2.326,5.311,4.143,7.327c1.811,2.011,4.106,3.592,6.822,4.7
				c2.73,1.114,5.875,1.679,9.346,1.679c3.491,0,6.625-0.549,9.316-1.634c2.672-1.077,4.956-2.653,6.787-4.683
				c1.839-2.038,3.238-4.483,4.159-7.267c0.929-2.808,1.4-5.978,1.4-9.423c0-4.655-0.858-8.755-2.549-12.188
				c-1.675-3.399-4.176-6.058-7.434-7.9C411.18,71.066,407.187,70.126,402.589,70.126z M402.714,110.135
				c-1.952,0-3.773-0.369-5.414-1.096c-1.646-0.729-3.123-1.841-4.389-3.304c-1.26-1.458-2.246-3.308-2.93-5.502
				c-0.676-2.167-1.02-4.618-1.02-7.287c0-2.648,0.344-5.074,1.02-7.211c0.684-2.159,1.637-3.966,2.832-5.369
				c1.204-1.414,2.66-2.506,4.33-3.247c1.661-0.738,3.494-1.111,5.445-1.111c2.734,0,5.197,0.675,7.32,2.005
				c2.13,1.336,3.788,3.325,4.928,5.912c1.121,2.544,1.689,5.58,1.689,9.022c0,3.721-0.618,6.91-1.838,9.479
				c-1.236,2.604-2.934,4.563-5.043,5.823C407.546,109.5,405.214,110.135,402.714,110.135z M402.589,77.503
				c-1.742,0-3.37,0.331-4.839,0.983c-1.463,0.649-2.741,1.607-3.798,2.849c-1.065,1.251-1.921,2.883-2.545,4.851
				c-0.629,1.991-0.949,4.266-0.949,6.76c0,2.518,0.32,4.82,0.951,6.842c0.622,1.997,1.508,3.668,2.633,4.969
				c1.12,1.295,2.42,2.276,3.863,2.916c1.449,0.642,3.066,0.967,4.809,0.967c2.227,0,4.301-0.564,6.164-1.676
				c1.852-1.105,3.352-2.848,4.459-5.18c1.124-2.367,1.693-5.341,1.693-8.838c0-3.233-0.525-6.066-1.562-8.419
				c-1.017-2.308-2.482-4.073-4.354-5.247C407.233,78.101,405.038,77.503,402.589,77.503z M412.778,67.625h-2.375
				c-0.748,0-1.34-0.111-1.813-0.341c-0.451-0.219-0.882-0.557-1.279-1.005c-0.343-0.385-0.684-0.78-1.014-1.171l-2.553-2.987
				l-2.558,2.992c-1.224,1.458-1.675,1.854-1.908,2.024c-0.453,0.333-1.15,0.488-2.192,0.488h-2.5c-1.347,0-2.029-0.399-2.029-1.186
				c0-0.374,0.188-0.843,1.131-2.028l3.481-4.171c0.286-0.348,0.617-0.757,0.989-1.222c0.423-0.529,0.795-0.903,1.139-1.145
				c0.368-0.259,0.862-0.452,1.51-0.589c0.592-0.125,1.275-0.188,2.031-0.188h1.75c1.559,0,2.586,0.197,3.236,0.622
				c0.584,0.381,1.383,1.211,2.442,2.535l3.604,4.233c0.907,1.189,1.061,1.534,1.061,1.86
				C414.933,67.195,414.208,67.625,412.778,67.625z M403.745,59.819l3.693,4.322c0.324,0.387,0.656,0.771,0.991,1.146
				c0.267,0.3,0.54,0.52,0.813,0.652c0.181,0.087,0.525,0.191,1.16,0.191h2.375c0.178,0,0.32-0.007,0.432-0.018
				c-0.113-0.166-0.278-0.394-0.514-0.704l-3.582-4.204c-1.192-1.49-1.802-2.036-2.105-2.235c-0.217-0.141-0.819-0.378-2.42-0.378
				h-1.75c-0.652,0-1.231,0.053-1.722,0.156c-0.548,0.116-0.823,0.253-0.958,0.349c-0.154,0.108-0.422,0.344-0.832,0.856
				c-0.377,0.472-0.713,0.886-1.006,1.243l-3.473,4.161c-0.27,0.338-0.449,0.586-0.569,0.766c0.085,0.005,0.188,0.008,0.308,0.008
				h2.5c0.987,0,1.263-0.166,1.308-0.199c0.149-0.109,0.561-0.485,1.651-1.785L403.745,59.819z"/>
		</g>
		<path fill="#6FA642" d="M415.907,72.561c0,0,0.125,0.111,0.358,0.32c0.246,0.214,0.608,0.527,1.069,0.925
			c0.934,0.794,2.291,1.919,3.961,3.218c1.671,1.299,3.656,2.772,5.846,4.25c2.191,1.476,4.587,2.967,7.075,4.255
			c2.485,1.289,5.072,2.384,7.587,2.982c1.255,0.296,2.49,0.455,3.656,0.443c1.16-0.03,2.256-0.227,3.185-0.632
			c0.931-0.4,1.696-0.976,2.275-1.591c0.153-0.147,0.282-0.307,0.405-0.464c0.125-0.155,0.249-0.303,0.348-0.461
			c0.104-0.155,0.201-0.304,0.296-0.445c0.085-0.15,0.164-0.293,0.239-0.428c0.162-0.267,0.262-0.528,0.369-0.747
			c0.107-0.219,0.176-0.414,0.236-0.572c0.119-0.315,0.184-0.483,0.184-0.483s-0.041,0.175-0.119,0.503
			c-0.039,0.165-0.082,0.37-0.162,0.603c-0.078,0.233-0.146,0.511-0.273,0.803c-0.061,0.149-0.122,0.305-0.188,0.469
			c-0.079,0.159-0.161,0.325-0.246,0.5c-0.082,0.177-0.189,0.349-0.3,0.528c-0.107,0.182-0.223,0.368-0.364,0.547
			c-0.53,0.735-1.285,1.483-2.274,2.071c-0.985,0.594-2.196,0.98-3.491,1.183c-1.297,0.185-2.682,0.185-4.084,0.042
			c-2.809-0.293-5.694-1.1-8.474-2.108c-2.784-1.008-5.47-2.231-7.938-3.462c-2.468-1.234-4.714-2.487-6.615-3.604
			c-1.901-1.116-3.458-2.097-4.545-2.801c-0.544-0.358-0.971-0.64-1.263-0.833c-0.299-0.204-0.457-0.313-0.457-0.313L415.907,72.561
			z"/>
	</g>
	<g>
		<path fill="#222323" d="M297.696,155.74c0,2.201-0.536,4.085-1.607,5.653c-1.071,1.567-2.653,2.755-4.747,3.563
			c-2.094,0.809-4.64,1.212-7.639,1.212c-2.863,0-5.316-0.438-7.361-1.314c-2.044-0.876-3.554-1.972-4.528-3.286
			c-0.974-1.315-1.46-2.634-1.46-3.959c0-0.876,0.311-1.625,0.935-2.249c0.624-0.624,1.412-0.935,2.367-0.935
			c0.837,0,1.479,0.204,1.928,0.613c0.448,0.409,0.876,0.983,1.285,1.724c0.818,1.421,1.796,2.483,2.936,3.184
			c1.14,0.701,2.692,1.052,4.659,1.052c1.597,0,2.907-0.355,3.929-1.066c1.023-0.71,1.534-1.524,1.534-2.439
			c0-1.402-0.53-2.424-1.592-3.067c-1.061-0.643-2.809-1.256-5.243-1.84c-2.746-0.681-4.98-1.397-6.704-2.147
			c-1.723-0.75-3.102-1.739-4.133-2.965c-1.032-1.227-1.548-2.736-1.548-4.527c0-1.598,0.477-3.107,1.432-4.528
			c0.954-1.421,2.361-2.556,4.221-3.403c1.859-0.847,4.104-1.271,6.733-1.271c2.064,0,3.919,0.215,5.565,0.643
			c1.646,0.428,3.019,1.002,4.119,1.723c1.1,0.721,1.938,1.519,2.512,2.396c0.574,0.876,0.861,1.733,0.861,2.571
			c0,0.916-0.307,1.665-0.92,2.25c-0.614,0.584-1.485,0.876-2.615,0.876c-0.818,0-1.514-0.233-2.088-0.701s-1.232-1.168-1.972-2.104
			c-0.604-0.779-1.315-1.402-2.133-1.869c-0.818-0.468-1.928-0.701-3.33-0.701c-1.441,0-2.639,0.307-3.593,0.92
			c-0.954,0.614-1.431,1.378-1.431,2.293c0,0.838,0.351,1.524,1.051,2.06c0.701,0.536,1.646,0.979,2.833,1.329
			c1.188,0.351,2.824,0.779,4.908,1.285c2.473,0.604,4.494,1.325,6.062,2.162c1.567,0.838,2.755,1.826,3.563,2.965
			C297.292,152.979,297.696,154.279,297.696,155.74z"/>
		<path fill="#222323" d="M325.155,161.67v-1.023c-0.954,1.208-1.957,2.221-3.008,3.039c-1.052,0.818-2.202,1.427-3.448,1.826
			s-2.668,0.599-4.265,0.599c-1.928,0-3.656-0.399-5.185-1.197c-1.529-0.799-2.712-1.899-3.549-3.301
			c-0.993-1.694-1.49-4.129-1.49-7.303v-15.804c0-1.597,0.36-2.79,1.081-3.579c0.72-0.788,1.675-1.183,2.863-1.183
			c1.208,0,2.181,0.399,2.921,1.198s1.111,1.986,1.111,3.563v12.766c0,1.851,0.155,3.403,0.467,4.66
			c0.312,1.256,0.871,2.24,1.68,2.951c0.808,0.71,1.903,1.065,3.286,1.065c1.344,0,2.609-0.398,3.797-1.197
			c1.188-0.798,2.055-1.84,2.6-3.126c0.448-1.129,0.672-3.602,0.672-7.419v-9.699c0-1.577,0.37-2.765,1.11-3.563
			s1.704-1.198,2.892-1.198s2.143,0.395,2.863,1.183c0.72,0.789,1.081,1.982,1.081,3.579v23.107c0,1.519-0.346,2.659-1.038,3.418
			c-0.691,0.76-1.583,1.139-2.672,1.139c-1.091,0-1.992-0.395-2.702-1.183C325.511,164.197,325.155,163.092,325.155,161.67z"/>
		<path fill="#222323" d="M344.61,130.033c-1.11,0-2.06-0.341-2.848-1.022c-0.789-0.681-1.184-1.646-1.184-2.892
			c0-1.129,0.404-2.06,1.212-2.791c0.808-0.73,1.748-1.095,2.819-1.095c1.032,0,1.947,0.332,2.746,0.993
			c0.798,0.662,1.198,1.626,1.198,2.893c0,1.227-0.39,2.186-1.168,2.877C346.606,129.688,345.681,130.033,344.61,130.033z
			 M348.554,138.271v23.048c0,1.597-0.38,2.804-1.14,3.622c-0.759,0.818-1.723,1.227-2.892,1.227s-2.118-0.419-2.849-1.256
			c-0.73-0.837-1.095-2.035-1.095-3.593v-22.815c0-1.577,0.365-2.765,1.095-3.563c0.731-0.798,1.68-1.198,2.849-1.198
			s2.132,0.399,2.892,1.198C348.174,135.739,348.554,136.849,348.554,138.271z"/>
		<path fill="#222323" d="M362.43,138.709l6.456,18.111l6.952-18.9c0.545-1.519,1.081-2.595,1.607-3.228
			c0.526-0.632,1.325-0.949,2.396-0.949c1.012,0,1.874,0.341,2.585,1.022c0.71,0.682,1.065,1.471,1.065,2.366
			c0,0.351-0.063,0.759-0.189,1.227c-0.127,0.467-0.273,0.905-0.438,1.314c-0.166,0.409-0.355,0.876-0.57,1.402l-7.653,18.988
			c-0.214,0.545-0.492,1.237-0.833,2.074c-0.341,0.838-0.72,1.553-1.14,2.147c-0.418,0.594-0.935,1.057-1.548,1.388
			c-0.614,0.331-1.358,0.497-2.235,0.497c-1.13,0-2.03-0.258-2.702-0.774c-0.671-0.516-1.168-1.081-1.489-1.694
			c-0.322-0.613-0.862-1.825-1.622-3.637l-7.595-18.783c-0.175-0.467-0.355-0.935-0.541-1.402c-0.185-0.467-0.341-0.944-0.467-1.432
			c-0.126-0.486-0.19-0.905-0.19-1.255c0-0.545,0.166-1.086,0.497-1.622c0.331-0.535,0.789-0.973,1.373-1.314
			c0.584-0.341,1.217-0.511,1.899-0.511c1.324,0,2.234,0.379,2.731,1.139C361.276,135.642,361.826,136.917,362.43,138.709z"/>
		<path fill="#222323" d="M408.585,161.67c-1.928,1.5-3.793,2.625-5.594,3.374c-1.802,0.75-3.822,1.125-6.062,1.125
			c-2.046,0-3.842-0.404-5.39-1.212c-1.549-0.808-2.741-1.903-3.578-3.286c-0.838-1.383-1.257-2.882-1.257-4.499
			c0-2.181,0.691-4.041,2.074-5.58c1.382-1.539,3.281-2.571,5.696-3.097c0.506-0.117,1.763-0.38,3.768-0.789
			c2.006-0.409,3.726-0.784,5.156-1.124c1.432-0.341,2.984-0.755,4.66-1.242c-0.098-2.103-0.521-3.646-1.271-4.63
			s-2.303-1.476-4.658-1.476c-2.026,0-3.551,0.283-4.572,0.847c-1.023,0.565-1.899,1.412-2.629,2.542
			c-0.73,1.13-1.247,1.875-1.549,2.235c-0.302,0.36-0.949,0.541-1.942,0.541c-0.896,0-1.67-0.288-2.322-0.862
			c-0.653-0.574-0.979-1.309-0.979-2.205c0-1.402,0.496-2.765,1.489-4.09c0.993-1.324,2.542-2.415,4.645-3.271
			c2.104-0.857,4.723-1.285,7.859-1.285c3.504,0,6.26,0.413,8.267,1.241c2.005,0.828,3.423,2.138,4.25,3.929
			c0.827,1.792,1.241,4.168,1.241,7.128c0,1.87-0.005,3.457-0.015,4.761c-0.01,1.305-0.024,2.756-0.044,4.353
			c0,1.5,0.249,3.063,0.745,4.688c0.497,1.626,0.745,2.673,0.745,3.141c0,0.818-0.385,1.563-1.154,2.234
			c-0.77,0.672-1.641,1.008-2.614,1.008c-0.817,0-1.626-0.385-2.425-1.154S409.481,163.13,408.585,161.67z M408.06,150.131
			c-1.168,0.428-2.868,0.882-5.098,1.359c-2.23,0.477-3.773,0.827-4.631,1.051c-0.856,0.224-1.674,0.662-2.453,1.314
			c-0.779,0.653-1.169,1.563-1.169,2.731c0,1.208,0.458,2.235,1.373,3.082c0.915,0.848,2.112,1.271,3.593,1.271
			c1.578,0,3.033-0.346,4.367-1.038c1.334-0.691,2.313-1.582,2.936-2.673c0.721-1.208,1.082-3.194,1.082-5.959V150.131z"/>
		<path fill="#222323" d="M431.224,138.154v0.964c1.402-1.85,2.936-3.208,4.602-4.075c1.664-0.866,3.578-1.3,5.74-1.3
			c2.104,0,3.982,0.458,5.639,1.373c1.654,0.916,2.891,2.21,3.709,3.886c0.526,0.974,0.867,2.025,1.022,3.155
			c0.156,1.13,0.233,2.57,0.233,4.323v14.84c0,1.597-0.365,2.804-1.095,3.622c-0.731,0.818-1.681,1.227-2.849,1.227
			c-1.188,0-2.152-0.419-2.892-1.256c-0.74-0.837-1.11-2.035-1.11-3.593v-13.292c0-2.629-0.365-4.64-1.096-6.032
			s-2.186-2.089-4.367-2.089c-1.422,0-2.717,0.423-3.885,1.271c-1.169,0.847-2.025,2.011-2.57,3.491
			c-0.391,1.188-0.585,3.408-0.585,6.661v9.99c0,1.616-0.374,2.829-1.124,3.637c-0.75,0.809-1.719,1.212-2.906,1.212
			c-1.15,0-2.094-0.419-2.834-1.256c-0.74-0.837-1.11-2.035-1.11-3.593v-23.048c0-1.519,0.331-2.654,0.993-3.403
			s1.568-1.125,2.717-1.125c0.701,0,1.334,0.166,1.898,0.497c0.564,0.331,1.018,0.828,1.358,1.49
			C431.054,136.392,431.224,137.2,431.224,138.154z"/>
		<path fill="#222323" d="M460.554,134.444h0.876v-4.791c0-1.286,0.034-2.293,0.103-3.023c0.067-0.73,0.258-1.358,0.569-1.884
			c0.312-0.545,0.76-0.988,1.344-1.329c0.585-0.341,1.236-0.512,1.957-0.512c1.013,0,1.928,0.38,2.745,1.139
			c0.547,0.507,0.892,1.125,1.038,1.855c0.146,0.73,0.219,1.768,0.219,3.111v5.434h2.921c1.13,0,1.992,0.268,2.586,0.803
			s0.891,1.222,0.891,2.06c0,1.071-0.424,1.821-1.271,2.249c-0.846,0.429-2.059,0.643-3.636,0.643h-1.49v14.665
			c0,1.247,0.044,2.206,0.132,2.877c0.088,0.672,0.32,1.217,0.701,1.636c0.379,0.419,0.998,0.628,1.854,0.628
			c0.468,0,1.101-0.082,1.899-0.248c0.798-0.166,1.421-0.248,1.869-0.248c0.643,0,1.222,0.258,1.738,0.774
			c0.516,0.516,0.773,1.154,0.773,1.913c0,1.286-0.701,2.269-2.103,2.951c-1.402,0.681-3.418,1.022-6.048,1.022
			c-2.492,0-4.381-0.419-5.666-1.256c-1.285-0.837-2.129-1.996-2.527-3.477c-0.398-1.48-0.599-3.457-0.599-5.93v-15.307h-1.052
			c-1.149,0-2.025-0.272-2.629-0.818c-0.604-0.545-0.906-1.237-0.906-2.074c0-0.837,0.316-1.524,0.949-2.06
			C458.426,134.712,459.346,134.444,460.554,134.444z"/>
	</g>
	<g>
		<path fill="#565A52" d="M244.198,193.208l-1.568-4.267h-5.952l-1.568,4.267h-1.043l5.176-13.719h0.899l5.118,13.719H244.198z
			 M239.988,181.729c-0.07-0.191-0.127-0.379-0.172-0.564c-0.044-0.16-0.092-0.319-0.143-0.479h-0.039
			c-0.108,0.421-0.214,0.763-0.316,1.024l-2.305,6.362h5.291L239.988,181.729z"/>
		<path fill="#565A52" d="M253.86,193.208v-1.779h-0.039c-0.682,1.346-1.734,2.019-3.157,2.019c-2.315,0-3.473-1.458-3.473-4.373
			v-5.664h0.89v5.444c0,1.326,0.218,2.29,0.656,2.889c0.437,0.6,1.124,0.899,2.062,0.899c0.912,0,1.65-0.335,2.215-1.005
			c0.565-0.669,0.847-1.563,0.847-2.679v-5.549h0.88v9.797H253.86z"/>
		<path fill="#565A52" d="M262.739,192.778v-1.062c0.331,0.287,0.733,0.514,1.205,0.679c0.472,0.167,0.881,0.25,1.225,0.25
			c1.537,0,2.306-0.629,2.306-1.885c0-0.433-0.169-0.804-0.507-1.11c-0.338-0.306-0.887-0.622-1.646-0.947
			c-0.937-0.408-1.596-0.831-1.976-1.268c-0.379-0.437-0.568-0.968-0.568-1.593c0-0.797,0.304-1.441,0.913-1.933
			c0.61-0.491,1.36-0.736,2.253-0.736c0.842,0,1.563,0.172,2.163,0.517v0.994c-0.728-0.472-1.48-0.708-2.258-0.708
			c-0.645,0-1.164,0.167-1.559,0.502c-0.396,0.335-0.593,0.77-0.593,1.306c0,0.465,0.125,0.844,0.373,1.134
			c0.249,0.29,0.797,0.623,1.646,1c1.021,0.459,1.722,0.885,2.105,1.277c0.382,0.393,0.574,0.914,0.574,1.564
			c0,0.778-0.292,1.421-0.875,1.928c-0.583,0.507-1.389,0.761-2.416,0.761C264.157,193.448,263.37,193.224,262.739,192.778z"/>
		<path fill="#565A52" d="M271.062,188.349c0,1.346,0.312,2.398,0.934,3.157c0.621,0.76,1.474,1.139,2.558,1.139
			c1.097,0,2.169-0.405,3.215-1.215v0.938c-1.014,0.72-2.146,1.081-3.396,1.081c-1.263,0-2.283-0.453-3.061-1.359
			c-0.778-0.905-1.167-2.184-1.167-3.836c0-1.429,0.406-2.633,1.22-3.612s1.87-1.468,3.171-1.468c1.218,0,2.153,0.427,2.803,1.282
			c0.651,0.854,0.976,2.021,0.976,3.501v0.392H271.062z M277.395,187.545c-0.038-1.128-0.309-2.005-0.813-2.631
			s-1.199-0.938-2.086-0.938c-0.918,0-1.679,0.308-2.282,0.923c-0.603,0.616-0.974,1.497-1.114,2.645H277.395z"/>
		<path fill="#565A52" d="M285.365,184.331c-0.294-0.211-0.638-0.316-1.034-0.316c-0.771,0-1.419,0.398-1.942,1.196
			c-0.523,0.797-0.785,1.929-0.785,3.396v4.602h-0.861v-9.797h0.861v2.172h0.039c0.223-0.746,0.577-1.326,1.062-1.741
			c0.484-0.415,1.045-0.622,1.683-0.622c0.364,0,0.689,0.058,0.977,0.172V184.331z"/>
		<path fill="#565A52" d="M291.621,193.208h-0.804l-3.789-9.797h0.986l2.917,7.797c0.141,0.376,0.239,0.718,0.297,1.024h0.038
			c0.083-0.402,0.175-0.73,0.277-0.985l3.014-7.836h0.957L291.621,193.208z"/>
		<path fill="#565A52" d="M297.715,180.944c-0.191,0-0.361-0.07-0.507-0.21c-0.147-0.14-0.22-0.319-0.22-0.536
			c0-0.21,0.075-0.381,0.225-0.512c0.149-0.13,0.316-0.196,0.502-0.196c0.197,0,0.372,0.064,0.521,0.192s0.225,0.3,0.225,0.516
			c0,0.204-0.073,0.38-0.22,0.526C298.095,180.871,297.919,180.944,297.715,180.944z M297.285,193.208v-9.797h0.88v9.797H297.285z"
			/>
		<path fill="#565A52" d="M307.646,192.778c-0.728,0.446-1.595,0.67-2.603,0.67c-1.333,0-2.408-0.458-3.224-1.374
			c-0.817-0.916-1.225-2.113-1.225-3.592c0-1.556,0.46-2.831,1.378-3.822c0.918-0.992,2.099-1.488,3.54-1.488
			c0.746,0,1.47,0.153,2.172,0.459v0.995c-0.702-0.433-1.47-0.65-2.306-0.65c-1.148,0-2.08,0.413-2.793,1.239
			c-0.714,0.826-1.071,1.896-1.071,3.21c0,1.269,0.327,2.29,0.98,3.062c0.654,0.771,1.517,1.158,2.588,1.158
			c0.982,0,1.836-0.261,2.564-0.785V192.778z"/>
		<path fill="#565A52" d="M310.21,188.349c0,1.346,0.311,2.398,0.932,3.157c0.622,0.76,1.475,1.139,2.56,1.139
			c1.096,0,2.168-0.405,3.214-1.215v0.938c-1.014,0.72-2.146,1.081-3.396,1.081c-1.263,0-2.283-0.453-3.061-1.359
			c-0.778-0.905-1.167-2.184-1.167-3.836c0-1.429,0.407-2.633,1.22-3.612c0.813-0.979,1.87-1.468,3.171-1.468
			c1.218,0,2.152,0.427,2.803,1.282c0.65,0.854,0.976,2.021,0.976,3.501v0.392H310.21z M316.543,187.545
			c-0.038-1.128-0.309-2.005-0.813-2.631s-1.199-0.938-2.086-0.938c-0.918,0-1.679,0.308-2.282,0.923
			c-0.603,0.616-0.975,1.497-1.114,2.645H316.543z"/>
		<path fill="#565A52" d="M332.213,193.208v-1.779h-0.038c-0.319,0.619-0.791,1.11-1.416,1.473c-0.625,0.363-1.33,0.546-2.114,0.546
			c-1.206,0-2.189-0.44-2.951-1.321c-0.762-0.88-1.144-2.095-1.144-3.645c0-1.582,0.416-2.863,1.249-3.842
			c0.832-0.979,1.912-1.468,3.238-1.468c1.467,0,2.513,0.602,3.138,1.808h0.038v-6.276h0.881v14.503H332.213z M332.213,187.249
			c0-0.912-0.288-1.686-0.865-2.32c-0.577-0.634-1.354-0.952-2.33-0.952c-1.026,0-1.875,0.394-2.545,1.182
			c-0.669,0.788-1.004,1.871-1.004,3.248c0,1.353,0.301,2.396,0.904,3.133c0.603,0.737,1.379,1.105,2.329,1.105
			c1.117,0,1.98-0.346,2.593-1.038c0.612-0.692,0.918-1.536,0.918-2.531V187.249z"/>
		<path fill="#565A52" d="M336.442,188.349c0,1.346,0.311,2.398,0.933,3.157c0.622,0.76,1.475,1.139,2.559,1.139
			c1.097,0,2.168-0.405,3.214-1.215v0.938c-1.014,0.72-2.146,1.081-3.396,1.081c-1.263,0-2.284-0.453-3.061-1.359
			c-0.778-0.905-1.167-2.184-1.167-3.836c0-1.429,0.406-2.633,1.22-3.612c0.813-0.979,1.87-1.468,3.171-1.468
			c1.218,0,2.152,0.427,2.803,1.282c0.65,0.854,0.976,2.021,0.976,3.501v0.392H336.442z M342.775,187.545
			c-0.038-1.128-0.309-2.005-0.813-2.631c-0.504-0.625-1.199-0.938-2.086-0.938c-0.919,0-1.679,0.308-2.282,0.923
			s-0.975,1.497-1.114,2.645H342.775z"/>
		<path fill="#565A52" d="M351.491,193.208v-14.503h0.88v14.503H351.491z"/>
		<path fill="#565A52" d="M361.364,193.208v-1.961h-0.038c-0.313,0.669-0.767,1.204-1.364,1.602
			c-0.596,0.399-1.258,0.599-1.985,0.599c-0.932,0-1.668-0.262-2.21-0.785c-0.542-0.522-0.813-1.183-0.813-1.98
			c0-1.709,1.132-2.743,3.396-3.1l3.014-0.45c0-2.104-0.791-3.157-2.373-3.157c-1.078,0-2.127,0.434-3.147,1.301v-1.062
			c0.363-0.287,0.856-0.532,1.478-0.736c0.622-0.204,1.207-0.306,1.755-0.306c1.008,0,1.788,0.313,2.339,0.938
			c0.552,0.625,0.828,1.534,0.828,2.727v6.372H361.364z M358.667,188.33c-1.027,0.147-1.748,0.384-2.163,0.712
			c-0.415,0.329-0.621,0.863-0.621,1.603c0,0.581,0.192,1.059,0.578,1.436c0.386,0.376,0.923,0.564,1.612,0.564
			c0.944,0,1.728-0.35,2.354-1.048c0.625-0.699,0.938-1.599,0.938-2.703v-0.957L358.667,188.33z"/>
		<path fill="#565A52" d="M376.901,192.778c-0.728,0.446-1.595,0.67-2.602,0.67c-1.333,0-2.408-0.458-3.224-1.374
			c-0.817-0.916-1.225-2.113-1.225-3.592c0-1.556,0.459-2.831,1.377-3.822c0.918-0.992,2.098-1.488,3.54-1.488
			c0.747,0,1.47,0.153,2.172,0.459v0.995c-0.702-0.433-1.47-0.65-2.305-0.65c-1.148,0-2.08,0.413-2.793,1.239
			c-0.715,0.826-1.072,1.896-1.072,3.21c0,1.269,0.327,2.29,0.98,3.062c0.654,0.771,1.517,1.158,2.588,1.158
			c0.982,0,1.837-0.261,2.564-0.785V192.778z"/>
		<path fill="#565A52" d="M383.187,193.448c-1.429,0-2.559-0.471-3.391-1.412c-0.833-0.941-1.25-2.164-1.25-3.669
			c0-1.626,0.436-2.898,1.306-3.816c0.871-0.919,2.018-1.378,3.439-1.378c1.396,0,2.5,0.457,3.31,1.368
			c0.811,0.912,1.216,2.175,1.216,3.789c0,1.524-0.414,2.759-1.239,3.702C385.752,192.976,384.621,193.448,383.187,193.448z
			 M383.254,183.977c-1.155,0-2.075,0.389-2.761,1.167c-0.686,0.778-1.028,1.859-1.028,3.243c0,1.282,0.335,2.313,1.005,3.09
			c0.67,0.778,1.585,1.167,2.746,1.167c1.18,0,2.088-0.383,2.727-1.148c0.637-0.766,0.956-1.828,0.956-3.187
			c0-1.397-0.317-2.468-0.952-3.214S384.414,183.977,383.254,183.977z"/>
		<path fill="#565A52" d="M402.53,193.208v-5.894c0-1.23-0.192-2.095-0.578-2.592s-0.996-0.746-1.832-0.746
			c-0.771,0-1.438,0.332-2,0.995c-0.561,0.664-0.842,1.496-0.842,2.498v5.74h-0.881v-5.96c0-2.181-0.828-3.272-2.486-3.272
			c-0.797,0-1.461,0.333-1.99,1c-0.529,0.667-0.793,1.529-0.793,2.588v5.645h-0.881v-9.797h0.881v1.627h0.037
			c0.683-1.244,1.681-1.866,2.995-1.866c0.714,0,1.324,0.206,1.831,0.617c0.508,0.411,0.851,0.952,1.029,1.622
			c0.306-0.708,0.744-1.258,1.314-1.65c0.571-0.392,1.192-0.588,1.861-0.588c2.143,0,3.215,1.327,3.215,3.98v6.056H402.53z"/>
		<path fill="#565A52" d="M418.632,193.208v-5.894c0-1.23-0.193-2.095-0.578-2.592c-0.387-0.498-0.998-0.746-1.832-0.746
			c-0.772,0-1.439,0.332-2,0.995c-0.562,0.664-0.842,1.496-0.842,2.498v5.74h-0.881v-5.96c0-2.181-0.828-3.272-2.486-3.272
			c-0.798,0-1.461,0.333-1.99,1c-0.529,0.667-0.795,1.529-0.795,2.588v5.645h-0.88v-9.797h0.88v1.627h0.039
			c0.682-1.244,1.68-1.866,2.994-1.866c0.715,0,1.325,0.206,1.832,0.617c0.507,0.411,0.85,0.952,1.029,1.622
			c0.306-0.708,0.744-1.258,1.314-1.65c0.571-0.392,1.191-0.588,1.861-0.588c2.143,0,3.215,1.327,3.215,3.98v6.056H418.632z"/>
		<path fill="#565A52" d="M428.917,193.208v-1.779h-0.039c-0.682,1.346-1.734,2.019-3.157,2.019c-2.315,0-3.473-1.458-3.473-4.373
			v-5.664h0.89v5.444c0,1.326,0.219,2.29,0.656,2.889c0.436,0.6,1.123,0.899,2.061,0.899c0.912,0,1.65-0.335,2.215-1.005
			s0.848-1.563,0.848-2.679v-5.549h0.879v9.797H428.917z"/>
		<path fill="#565A52" d="M439.593,193.208v-5.702c0-2.354-0.848-3.53-2.545-3.53c-0.943,0-1.719,0.346-2.324,1.038
			c-0.605,0.692-0.908,1.548-0.908,2.569v5.625h-0.881v-9.797h0.881v1.78h0.037c0.715-1.346,1.831-2.019,3.349-2.019
			c1.06,0,1.868,0.353,2.431,1.057c0.561,0.705,0.842,1.711,0.842,3.019v5.96H439.593z"/>
		<path fill="#565A52" d="M449.275,193.208v-1.961h-0.038c-0.313,0.669-0.768,1.204-1.363,1.602
			c-0.598,0.399-1.259,0.599-1.986,0.599c-0.931,0-1.668-0.262-2.209-0.785c-0.543-0.522-0.814-1.183-0.814-1.98
			c0-1.709,1.133-2.743,3.396-3.1l3.015-0.45c0-2.104-0.791-3.157-2.373-3.157c-1.078,0-2.127,0.434-3.147,1.301v-1.062
			c0.363-0.287,0.855-0.532,1.478-0.736s1.207-0.306,1.756-0.306c1.008,0,1.788,0.313,2.339,0.938
			c0.553,0.625,0.828,1.534,0.828,2.727v6.372H449.275z M446.577,188.33c-1.027,0.147-1.748,0.384-2.162,0.712
			c-0.414,0.329-0.622,0.863-0.622,1.603c0,0.581,0.192,1.059,0.579,1.436c0.385,0.376,0.924,0.564,1.612,0.564
			c0.942,0,1.728-0.35,2.353-1.048c0.625-0.699,0.938-1.599,0.938-2.703v-0.957L446.577,188.33z"/>
		<path fill="#565A52" d="M459.569,193.208v-1.779h-0.039c-0.682,1.346-1.734,2.019-3.156,2.019c-2.316,0-3.474-1.458-3.474-4.373
			v-5.664h0.89v5.444c0,1.326,0.219,2.29,0.656,2.889c0.436,0.6,1.123,0.899,2.061,0.899c0.912,0,1.65-0.335,2.215-1.005
			s0.848-1.563,0.848-2.679v-5.549h0.88v9.797H459.569z"/>
		<path fill="#565A52" d="M467.462,193.075c-0.46,0.217-0.891,0.325-1.292,0.325c-1.448,0-2.172-0.867-2.172-2.602v-6.583h-1.76
			v-0.804h1.76v-2.545c0.141-0.051,0.287-0.101,0.44-0.153c0.152-0.044,0.3-0.092,0.439-0.143v2.841h2.584v0.804h-2.584v6.468
			c0,0.676,0.107,1.165,0.321,1.468c0.214,0.303,0.575,0.455,1.086,0.455c0.363,0,0.755-0.118,1.177-0.354V193.075z"/>
		<path fill="#565A52" d="M469.614,188.349c0,1.346,0.311,2.398,0.934,3.157c0.621,0.76,1.475,1.139,2.559,1.139
			c1.098,0,2.168-0.405,3.215-1.215v0.938c-1.016,0.72-2.147,1.081-3.396,1.081c-1.264,0-2.283-0.453-3.063-1.359
			c-0.777-0.905-1.166-2.184-1.166-3.836c0-1.429,0.406-2.633,1.219-3.612c0.814-0.979,1.871-1.468,3.172-1.468
			c1.218,0,2.152,0.427,2.803,1.282c0.651,0.854,0.977,2.021,0.977,3.501v0.392H469.614z M475.947,187.545
			c-0.038-1.128-0.31-2.005-0.813-2.631s-1.199-0.938-2.086-0.938c-0.918,0-1.678,0.308-2.281,0.923
			c-0.603,0.616-0.974,1.497-1.114,2.645H475.947z M472.513,181.843h-0.86l2.238-3.138h0.995L472.513,181.843z"/>
	</g>
</g>
</svg>
